<svg width="620" height="350" viewBox="0 0 620 350" fill="none" xmlns="http://www.w3.org/2000/svg">
  <defs>
    <style>text{font-family:'Inter','Segoe UI',Arial,sans-serif}</style>
  </defs>
  <rect width="620" height="350" fill="white"/>

  <!-- Title -->
  <text x="310" y="24" text-anchor="middle" font-size="13" fill="#111827" font-weight="bold">DevCo — Ownership Structure (ECA View)</text>

  <!-- ═══════════ ROW 1: UBOs (y=48) ═══════════ -->

  <rect x="30" y="48" width="210" height="44" rx="5" fill="#1F2937"/>
  <text x="135" y="68" text-anchor="middle" font-size="10.5" fill="#fff" font-weight="600">Sizakele Mabuza-Kekana</text>
  <text x="135" y="82" text-anchor="middle" font-size="8" fill="#9CA3AF">UBO | Promoter</text>

  <rect x="380" y="48" width="210" height="44" rx="5" fill="#1F2937"/>
  <text x="485" y="68" text-anchor="middle" font-size="10.5" fill="#fff" font-weight="600">Mark van Houten</text>
  <text x="485" y="82" text-anchor="middle" font-size="8" fill="#9CA3AF">UBO | Co-Investor</text>

  <!-- ═══════════ ROW 2: Vehicles (y=130) ═══════════ -->

  <line x1="135" y1="92" x2="135" y2="130" stroke="#2563EB" stroke-width="1.5"/>
  <polygon points="135,130 131,123 139,123" fill="#2563EB"/>

  <rect x="30" y="130" width="210" height="44" rx="5" fill="#EFF6FF" stroke="#2563EB" stroke-width="1.5"/>
  <text x="135" y="150" text-anchor="middle" font-size="10.5" fill="#1E40AF" font-weight="600">Andzafusion Water</text>
  <text x="135" y="164" text-anchor="middle" font-size="8" fill="#6B7280">(Pty) Ltd | Water &amp; Sanitation</text>

  <line x1="485" y1="92" x2="485" y2="130" stroke="#16A34A" stroke-width="1.5"/>
  <polygon points="485,130 481,123 489,123" fill="#16A34A"/>

  <rect x="380" y="130" width="210" height="44" rx="5" fill="#F0FDF4" stroke="#16A34A" stroke-width="1.5"/>
  <text x="485" y="150" text-anchor="middle" font-size="10.5" fill="#166534" font-weight="600">VH Investments Trust</text>
  <text x="485" y="164" text-anchor="middle" font-size="8" fill="#6B7280">VHIT | Also owns VanSquared</text>

  <!-- ═══════════ ROUTING to DevCo ═══════════ -->

  <line x1="135" y1="174" x2="135" y2="200" stroke="#2563EB" stroke-width="1.5"/>
  <line x1="135" y1="200" x2="280" y2="200" stroke="#2563EB" stroke-width="1.5"/>
  <line x1="280" y1="200" x2="280" y2="226" stroke="#2563EB" stroke-width="1.5"/>
  <polygon points="280,226 276,219 284,219" fill="#2563EB"/>

  <line x1="485" y1="174" x2="485" y2="195" stroke="#16A34A" stroke-width="1.5"/>
  <line x1="485" y1="195" x2="340" y2="195" stroke="#16A34A" stroke-width="1.5"/>
  <line x1="340" y1="195" x2="340" y2="226" stroke="#16A34A" stroke-width="1.5"/>
  <polygon points="340,226 336,219 344,219" fill="#16A34A"/>

  <!-- ═══════════ DevCo Box (y=226) ═══════════ -->

  <rect x="130" y="226" width="360" height="60" rx="5" fill="#374151"/>
  <text x="310" y="248" text-anchor="middle" font-size="12" fill="#fff" font-weight="700">Smart City Lanseria DevCo</text>
  <text x="310" y="263" text-anchor="middle" font-size="9" fill="#D1D5DB">Lanseria Smart City Development (Pty) Ltd</text>
  <text x="310" y="278" text-anchor="middle" font-size="7.5" fill="#9CA3AF">Reg. 2025/950567/07 | Master Development Company</text>

  <!-- ═══════════ Footnote ═══════════ -->

  <text x="310" y="310" text-anchor="middle" font-size="8" fill="#9CA3AF">ECA application view — two UBOs identified for Atradius / IIC due diligence</text>

  <!-- ═══════════ LEGEND ═══════════ -->
  <line x1="30" y1="326" x2="590" y2="326" stroke="#E5E7EB" stroke-width="0.8"/>
  <rect x="40" y="335" width="10" height="10" rx="2" fill="#1F2937"/>
  <text x="56" y="344" font-size="7.5" fill="#6B7280">UBO</text>
  <rect x="90" y="335" width="10" height="10" rx="2" fill="#EFF6FF" stroke="#2563EB" stroke-width="1"/>
  <text x="106" y="344" font-size="7.5" fill="#6B7280">Siza vehicle</text>
  <rect x="165" y="335" width="10" height="10" rx="2" fill="#F0FDF4" stroke="#16A34A" stroke-width="1"/>
  <text x="181" y="344" font-size="7.5" fill="#6B7280">Mark vehicle</text>
  <rect x="245" y="335" width="10" height="10" rx="2" fill="#374151"/>
  <text x="261" y="344" font-size="7.5" fill="#6B7280">DevCo</text>

</svg>