<svg width="820" height="320" viewBox="0 0 820 320" fill="none" xmlns="http://www.w3.org/2000/svg">
  <rect width="820" height="320" rx="12" fill="white" stroke="#E5E7EB" stroke-width="1"/>

  <text x="410" y="30" text-anchor="middle" font-family="Arial, sans-serif" font-size="16" fill="#1F2937" font-weight="bold">Smart City Lanseria DevCo — Shareholders</text>

  <!-- Shareholders row -->
  <!-- ANDZAFUSION WATER -->
  <rect x="15" y="60" width="185" height="65" rx="8" fill="#EFF6FF" stroke="#2563EB" stroke-width="1.5"/>
  <text x="107" y="88" text-anchor="middle" font-family="Arial, sans-serif" font-size="11" fill="#2563EB" font-weight="bold">ANDZAFUSION WATER</text>
  <text x="107" y="108" text-anchor="middle" font-family="Arial, sans-serif" font-size="10" fill="#6B7280">(Pty) Ltd</text>

  <!-- NexusNovus -->
  <rect x="220" y="60" width="185" height="65" rx="8" fill="#F0FDF4" stroke="#16A34A" stroke-width="1.5"/>
  <text x="312" y="88" text-anchor="middle" font-family="Arial, sans-serif" font-size="11" fill="#16A34A" font-weight="bold">NexusNovus</text>
  <text x="312" y="108" text-anchor="middle" font-family="Arial, sans-serif" font-size="10" fill="#6B7280">Strategic Partner</text>

  <!-- Eckhardt -->
  <rect x="425" y="60" width="185" height="65" rx="8" fill="#FEF3C7" stroke="#D97706" stroke-width="1.5"/>
  <text x="517" y="88" text-anchor="middle" font-family="Arial, sans-serif" font-size="11" fill="#D97706" font-weight="bold">Eckhardt</text>
  <text x="517" y="108" text-anchor="middle" font-family="Arial, sans-serif" font-size="10" fill="#6B7280">Shareholder</text>

  <!-- Others -->
  <rect x="630" y="60" width="175" height="65" rx="8" fill="#F3F4F6" stroke="#6B7280" stroke-width="1" stroke-dasharray="5,3"/>
  <text x="717" y="88" text-anchor="middle" font-family="Arial, sans-serif" font-size="11" fill="#6B7280" font-weight="bold">Others</text>
  <text x="717" y="108" text-anchor="middle" font-family="Arial, sans-serif" font-size="10" fill="#9CA3AF">Minority Shareholders</text>

  <!-- Arrows down -->
  <path d="M107,125 L107,175" stroke="#2563EB" stroke-width="1.5" fill="none"/>
  <polygon points="107,175 103,167 111,167" fill="#2563EB"/>

  <path d="M312,125 L312,175" stroke="#16A34A" stroke-width="1.5" fill="none"/>
  <polygon points="312,175 308,167 316,167" fill="#16A34A"/>

  <path d="M517,125 L517,175" stroke="#D97706" stroke-width="1.5" fill="none"/>
  <polygon points="517,175 513,167 521,167" fill="#D97706"/>

  <path d="M717,125 L717,175" stroke="#6B7280" stroke-width="1.5" fill="none" stroke-dasharray="5,3"/>
  <polygon points="717,175 713,167 721,167" fill="#6B7280"/>

  <!-- DevCo box -->
  <rect x="185" y="185" width="450" height="75" rx="10" fill="#374151" filter=""/>
  <text x="410" y="215" text-anchor="middle" font-family="Arial, sans-serif" font-size="14" fill="#FFFFFF" font-weight="bold">Smart City Lanseria DevCo</text>
  <text x="410" y="237" text-anchor="middle" font-family="Arial, sans-serif" font-size="11" fill="#D1D5DB">Master Development Company</text>
  <text x="410" y="252" text-anchor="middle" font-family="Arial, sans-serif" font-size="10" fill="#9CA3AF">Reg: 2025/950567/07</text>

  <!-- Footnote -->
  <text x="410" y="295" text-anchor="middle" font-family="Arial, sans-serif" font-size="10" fill="#9CA3AF">Lanseria Smart City Development (Pty) Ltd — land development, township establishment, bulk infrastructure</text>
</svg>
