<svg xmlns="http://www.w3.org/2000/svg" viewBox="0 0 1100 600" font-family="Inter, Segoe UI, Arial, sans-serif" font-size="12">
  <defs>
    <style>
      .box { rx: 6; ry: 6; stroke-width: 1.5; }
      .label-bold { font-size: 11px; fill: #374151; font-weight: 600; }
      .label-sm { font-size: 9.5px; fill: #6B7280; }
      .label-white { font-size: 12px; fill: #FFFFFF; font-weight: 600; }
      .label-white-sm { font-size: 10px; fill: #E5E7EB; }
      .line-solid { stroke: #9CA3AF; stroke-width: 1.5; fill: none; }
      .line-dashed { stroke: #9CA3AF; stroke-width: 1.5; fill: none; stroke-dasharray: 5,3; }
      .tag { font-size: 8px; font-weight: 600; }
      .tag-lc { font-size: 7.5px; font-weight: 600; }
    </style>
  </defs>

  <!-- UBO Box -->
  <rect x="380" y="10" width="340" height="44" class="box" fill="#1F2937" stroke="#111827"/>
  <text x="550" y="30" text-anchor="middle" class="label-white">Mark van Houten (UBO)</text>
  <text x="550" y="44" text-anchor="middle" class="label-white-sm">Director of all entities, Ultimate Beneficial Owner</text>

  <line x1="550" y1="54" x2="550" y2="78" class="line-solid"/>

  <!-- Trust Box -->
  <rect x="330" y="78" width="440" height="36" class="box" fill="#F3F4F6" stroke="#9CA3AF"/>
  <text x="550" y="98" text-anchor="middle" class="label-bold">VH Investments Trust (VHIT)</text>
  <text x="550" y="109" text-anchor="middle" class="label-sm">100% owner of all four siblings</text>

  <!-- Lines Trust → 4 siblings -->
  <line x1="550" y1="114" x2="550" y2="126" class="line-solid"/>
  <line x1="140" y1="126" x2="960" y2="126" class="line-solid"/>
  <line x1="140" y1="126" x2="140" y2="142" class="line-solid"/>
  <line x1="413" y1="126" x2="413" y2="142" class="line-solid"/>
  <line x1="687" y1="126" x2="687" y2="142" class="line-solid"/>
  <line x1="960" y1="126" x2="960" y2="142" class="line-solid"/>

  <!-- VPH — NWL Guarantor (greyed, not this report) -->
  <rect x="30" y="142" width="220" height="48" class="box" fill="#F3F4F6" stroke="#9CA3AF"/>
  <text x="140" y="161" text-anchor="middle" class="label-bold" style="fill:#9CA3AF">Veracity Property Holdings</text>
  <text x="140" y="174" text-anchor="middle" class="label-sm">(VPH) — NWL Guarantor</text>

  <!-- VPI — greyed -->
  <rect x="290" y="142" width="246" height="48" class="box" fill="#F3F4F6" stroke="#9CA3AF"/>
  <text x="413" y="161" text-anchor="middle" class="label-bold" style="fill:#9CA3AF">Veracity Property Investments</text>
  <text x="413" y="174" text-anchor="middle" class="label-sm">(VPI) — Development assets</text>

  <!-- VI — greyed -->
  <rect x="564" y="142" width="246" height="48" class="box" fill="#F3F4F6" stroke="#9CA3AF"/>
  <text x="687" y="161" text-anchor="middle" class="label-bold" style="fill:#9CA3AF">Veracity Investments</text>
  <text x="687" y="174" text-anchor="middle" class="label-sm">(VI) — Divestment properties</text>

  <!-- VH Properties (TWX Guarantor) — highlighted -->
  <rect x="840" y="142" width="240" height="52" class="box" fill="#DBEAFE" stroke="#2563EB" stroke-width="2"/>
  <text x="960" y="161" text-anchor="middle" class="label-bold" fill="#1E40AF">VH Properties (Pty) Ltd</text>
  <text x="960" y="174" text-anchor="middle" class="label-sm">40% in Phoenix Group</text>
  <rect x="900" y="180" width="120" height="14" rx="3" fill="#2563EB"/>
  <text x="960" y="190" text-anchor="middle" class="tag" fill="white">TWX GUARANTOR</text>

  <!-- Line VHP → Phoenix Specialist Property Fund -->
  <line x1="960" y1="194" x2="960" y2="210" class="line-solid"/>
  <line x1="960" y1="210" x2="550" y2="210" class="line-solid"/>
  <line x1="550" y1="210" x2="550" y2="224" class="line-solid"/>

  <!-- Phoenix Specialist Property Fund (dormant shell) -->
  <rect x="380" y="224" width="340" height="44" class="box" fill="#E5E7EB" stroke="#9CA3AF"/>
  <text x="550" y="243" text-anchor="middle" class="label-bold">Phoenix Specialist Property Fund</text>
  <text x="550" y="258" text-anchor="middle" class="label-sm">100% — Dormant shell (R100)</text>

  <line x1="550" y1="268" x2="550" y2="282" class="line-solid"/>
  <!-- Horizontal connector to 4 children -->
  <line x1="140" y1="282" x2="905" y2="282" class="line-solid"/>
  <line x1="140" y1="282" x2="140" y2="300" class="line-solid"/>
  <line x1="400" y1="282" x2="400" y2="300" class="line-solid"/>
  <line x1="640" y1="282" x2="640" y2="300" class="line-solid"/>
  <line x1="905" y1="282" x2="905" y2="300" class="line-solid"/>

  <!-- Phoenix Property Fund SA — Holding (grey) -->
  <rect x="30" y="300" width="220" height="56" class="box" fill="#FFFFFF" stroke="#D1D5DB"/>
  <text x="140" y="319" text-anchor="middle" class="label-bold">Phoenix Property Fund SA</text>
  <text x="140" y="332" text-anchor="middle" class="label-sm">100% — HoldCo for 6 retail centres</text>
  <rect x="90" y="340" width="100" height="12" rx="3" fill="#9CA3AF"/>
  <text x="140" y="349" text-anchor="middle" class="tag-lc" fill="white">HOLDING</text>

  <!-- PRAAM — Asset Manager (indigo) -->
  <rect x="300" y="300" width="200" height="56" class="box" fill="#FFFFFF" stroke="#D1D5DB"/>
  <text x="400" y="319" text-anchor="middle" class="label-bold">PRAAM</text>
  <text x="400" y="332" text-anchor="middle" class="label-sm">100% — Asset management</text>
  <rect x="340" y="340" width="120" height="12" rx="3" fill="#6366F1"/>
  <text x="400" y="349" text-anchor="middle" class="tag-lc" fill="white">ASSET MANAGER</text>

  <!-- Chartwell Co-Owner — Holding (grey) -->
  <rect x="550" y="300" width="180" height="56" class="box" fill="#FFFFFF" stroke="#D1D5DB"/>
  <text x="640" y="319" text-anchor="middle" class="label-bold">Chartwell Co-Owner</text>
  <text x="640" y="332" text-anchor="middle" class="label-sm">100% — Pass-through</text>
  <rect x="590" y="340" width="100" height="12" rx="3" fill="#9CA3AF"/>
  <text x="640" y="349" text-anchor="middle" class="tag-lc" fill="white">HOLDING</text>

  <!-- Renovo Property Fund — Holding (grey, far right above Madelief) -->
  <rect x="805" y="300" width="200" height="56" class="box" fill="#FFFFFF" stroke="#D1D5DB"/>
  <text x="905" y="319" text-anchor="middle" class="label-bold">Renovo Property Fund</text>
  <text x="905" y="332" text-anchor="middle" class="label-sm">100% — HoldCo (Madelief sold)</text>
  <rect x="855" y="340" width="100" height="12" rx="3" fill="#9CA3AF"/>
  <text x="905" y="349" text-anchor="middle" class="tag-lc" fill="white">HOLDING</text>

  <!-- Phoenix Prop Fund -> 6 retail centres -->
  <line x1="140" y1="356" x2="140" y2="375" class="line-solid"/>
  <line x1="65" y1="375" x2="715" y2="375" class="line-solid"/>
  <line x1="65" y1="375" x2="65" y2="393" class="line-solid"/>
  <line x1="195" y1="375" x2="195" y2="393" class="line-solid"/>
  <line x1="325" y1="375" x2="325" y2="393" class="line-solid"/>
  <line x1="455" y1="375" x2="455" y2="393" class="line-solid"/>
  <line x1="585" y1="375" x2="585" y2="393" class="line-solid"/>
  <line x1="715" y1="375" x2="715" y2="393" class="line-dashed"/>

  <!-- Renovo -> Madelief (sold, straight down, dashed) -->
  <line x1="905" y1="356" x2="905" y2="393" stroke="#D1D5DB" stroke-width="1.5" stroke-dasharray="5,3"/>

  <!-- 7 Retail Centres (6 active + Madelief sold) -->
  <!-- Ridgeview — Cash Generating (green) -->
  <rect x="5" y="393" width="120" height="72" class="box" fill="#FFFFFF" stroke="#D1D5DB"/>
  <text x="65" y="410" text-anchor="middle" class="label-bold" font-size="10">Ridgeview Centre</text>
  <text x="65" y="424" text-anchor="middle" class="label-sm">100% — R185M</text>
  <text x="65" y="438" text-anchor="middle" class="label-sm">Helderkruin</text>
  <rect x="15" y="449" width="100" height="12" rx="3" fill="#16A34A"/>
  <text x="65" y="458" text-anchor="middle" class="tag-lc" fill="white">CASH GENERATING</text>

  <!-- Brackenfell — Cash Generating (green) -->
  <rect x="135" y="393" width="120" height="72" class="box" fill="#FFFFFF" stroke="#D1D5DB"/>
  <text x="195" y="410" text-anchor="middle" class="label-bold" font-size="10">Brackenfell Corner</text>
  <text x="195" y="424" text-anchor="middle" class="label-sm">100% — R259M</text>
  <text x="195" y="438" text-anchor="middle" class="label-sm">Brackenfell CT</text>
  <rect x="145" y="449" width="100" height="12" rx="3" fill="#16A34A"/>
  <text x="195" y="458" text-anchor="middle" class="tag-lc" fill="white">CASH GENERATING</text>

  <!-- Chartwell — Stabilising (amber) -->
  <rect x="265" y="393" width="120" height="72" class="box" fill="#FFFFFF" stroke="#D1D5DB"/>
  <text x="325" y="410" text-anchor="middle" class="label-bold" font-size="10">Chartwell Corner</text>
  <text x="325" y="424" text-anchor="middle" class="label-sm">100% — R110M</text>
  <text x="325" y="438" text-anchor="middle" class="label-sm">Dainfern JHB</text>
  <rect x="275" y="449" width="100" height="12" rx="3" fill="#F59E0B"/>
  <text x="325" y="458" text-anchor="middle" class="tag-lc" fill="white">STABILISING</text>

  <!-- Jukskei — Cash Generating (green) -->
  <rect x="395" y="393" width="120" height="72" class="box" fill="#FFFFFF" stroke="#D1D5DB"/>
  <text x="455" y="410" text-anchor="middle" class="label-bold" font-size="10">Jukskei Meander</text>
  <text x="455" y="424" text-anchor="middle" class="label-sm">100% — R75M</text>
  <text x="455" y="438" text-anchor="middle" class="label-sm">Jukskei Park JHB</text>
  <rect x="405" y="449" width="100" height="12" rx="3" fill="#16A34A"/>
  <text x="455" y="458" text-anchor="middle" class="tag-lc" fill="white">CASH GENERATING</text>

  <!-- Olivedale — Stabilising (amber) -->
  <rect x="525" y="393" width="120" height="72" class="box" fill="#FFFFFF" stroke="#D1D5DB"/>
  <text x="585" y="410" text-anchor="middle" class="label-bold" font-size="10">Olivedale Corner</text>
  <text x="585" y="424" text-anchor="middle" class="label-sm">100% — R120M</text>
  <text x="585" y="438" text-anchor="middle" class="label-sm">Olivedale JHB</text>
  <rect x="535" y="449" width="100" height="12" rx="3" fill="#F59E0B"/>
  <text x="585" y="458" text-anchor="middle" class="tag-lc" fill="white">STABILISING</text>

  <!-- Silva Terrace (50%, no AFS) -->
  <rect x="655" y="393" width="120" height="72" class="box" fill="#E5E7EB" stroke="#9CA3AF" stroke-dasharray="5,3"/>
  <text x="715" y="410" text-anchor="middle" class="label-bold" font-size="10">Silva Terrace</text>
  <text x="715" y="424" text-anchor="middle" class="label-sm">50% — Retail</text>
  <rect x="665" y="449" width="100" height="12" rx="3" fill="#9CA3AF"/>
  <text x="715" y="458" text-anchor="middle" class="tag" fill="white">NO AFS</text>

  <!-- Madelief — Sold (greyed out, dashed) -->
  <rect x="845" y="393" width="120" height="72" class="box" fill="#F3F4F6" stroke="#D1D5DB" stroke-dasharray="5,3" opacity="0.6"/>
  <text x="905" y="410" text-anchor="middle" class="label-bold" font-size="10" fill="#9CA3AF">Madelief</text>
  <text x="905" y="424" text-anchor="middle" class="label-sm" fill="#9CA3AF">via Renovo</text>
  <text x="905" y="438" text-anchor="middle" class="label-sm" fill="#9CA3AF">Disposed</text>
  <rect x="855" y="449" width="100" height="12" rx="3" fill="#9CA3AF" opacity="0.5"/>
  <text x="905" y="458" text-anchor="middle" class="tag-lc" fill="white">SOLD</text>

  <!-- Legend -->
  <rect x="20" y="490" width="1060" height="80" rx="6" fill="#F9FAFB" stroke="#E5E7EB"/>
  <text x="40" y="510" class="label-bold" font-size="11">Legend:</text>

  <line x1="40" y1="523" x2="70" y2="523" class="line-solid"/>
  <text x="78" y="527" class="label-sm">Subsidiary (>50% or control)</text>
  <line x1="250" y1="523" x2="280" y2="523" class="line-dashed"/>
  <text x="288" y="527" class="label-sm">50% or less / sold</text>
  <rect x="400" y="516" width="16" height="14" rx="3" fill="#DBEAFE" stroke="#2563EB" stroke-width="1.5"/>
  <text x="422" y="527" class="label-sm">TWX Guarantor</text>
  <rect x="530" y="516" width="16" height="14" rx="3" fill="#F3F4F6" stroke="#9CA3AF" stroke-width="1.5"/>
  <text x="552" y="527" class="label-sm">Sibling (other group)</text>
  <rect x="700" y="516" width="16" height="14" rx="3" fill="#E5E7EB" stroke="#9CA3AF" stroke-width="1.5"/>
  <text x="722" y="527" class="label-sm">No AFS / Dormant</text>

  <!-- Lifecycle legend -->
  <text x="40" y="553" class="label-bold" font-size="11">Lifecycle:</text>
  <rect x="110" y="543" width="88" height="14" rx="3" fill="#16A34A"/>
  <text x="154" y="554" text-anchor="middle" class="tag" fill="white">CASH GENERATING</text>
  <rect x="206" y="543" width="60" height="14" rx="3" fill="#8B5CF6"/>
  <text x="236" y="554" text-anchor="middle" class="tag" fill="white">GROWTH</text>
  <rect x="274" y="543" width="70" height="14" rx="3" fill="#F59E0B"/>
  <text x="309" y="554" text-anchor="middle" class="tag" fill="white">STABILISING</text>
  <rect x="352" y="543" width="70" height="14" rx="3" fill="#0EA5E9"/>
  <text x="387" y="554" text-anchor="middle" class="tag" fill="white">EARLY-STAGE</text>
  <rect x="430" y="543" width="60" height="14" rx="3" fill="#F97316"/>
  <text x="460" y="554" text-anchor="middle" class="tag" fill="white">STALLED</text>
  <rect x="498" y="543" width="60" height="14" rx="3" fill="#DC2626"/>
  <text x="528" y="554" text-anchor="middle" class="tag" fill="white">DISTRESSED</text>
  <rect x="566" y="543" width="70" height="14" rx="3" fill="#06B6D4"/>
  <text x="601" y="554" text-anchor="middle" class="tag" fill="white">REVENUE ONLY</text>
  <rect x="644" y="543" width="50" height="14" rx="3" fill="#9CA3AF"/>
  <text x="669" y="554" text-anchor="middle" class="tag" fill="white">HOLDING</text>
  <rect x="702" y="543" width="80" height="14" rx="3" fill="#6366F1"/>
  <text x="742" y="554" text-anchor="middle" class="tag" fill="white">ASSET MANAGER</text>

  <text x="40" y="580" class="label-sm">Source: Mark van Houten, confirmed 01/03/2025. Lifecycle assessed from AFS + Dec 2025 management accounts + Broll management reports.</text>
</svg>
