<svg width="900" height="760" viewBox="0 0 900 760" fill="none" xmlns="http://www.w3.org/2000/svg">
  <defs>
    <style>text{font-family:'Inter','Segoe UI',Arial,sans-serif}</style>
    <marker id="loanArrow" viewBox="0 0 10 10" refX="9" refY="5" markerWidth="7" markerHeight="7" orient="auto-start-reverse">
      <path d="M 0 0 L 10 5 L 0 10 z" fill="#2563eb"/>
    </marker>
    <marker id="secArrow" viewBox="0 0 10 10" refX="9" refY="5" markerWidth="7" markerHeight="7" orient="auto-start-reverse">
      <path d="M 0 0 L 10 5 L 0 10 z" fill="#dc2626"/>
    </marker>
  </defs>

  <rect width="900" height="760" fill="white"/>

  <!-- Title -->
  <text x="450" y="28" text-anchor="middle" font-size="14" fill="#111827" font-weight="bold">Three Operating Companies, Three Envelopes</text>
  <text x="450" y="46" text-anchor="middle" font-size="10" fill="#6B7280">SCLCA Senior Facility — Three-Envelope Security Structure</text>

  <!-- ═══════════ ROW 1: IIC (y=68) ═══════════ -->

  <rect x="270" y="68" width="360" height="66" rx="5" fill="#1E3A5F"/>
  <text x="450" y="96" text-anchor="middle" font-size="12" font-weight="700" fill="#fff">Invest International Capital B.V.</text>
  <text id="env_total" x="450" y="114" text-anchor="middle" font-size="10" fill="#93c5fd">Senior Facility &#8364;13,597,304</text>

  <!-- Arrow IIC → SCLCA -->
  <line x1="450" y1="134" x2="450" y2="182" stroke="#2563eb" stroke-width="2" marker-end="url(#loanArrow)"/>
  <rect x="388" y="150" width="124" height="18" rx="9" fill="#2563eb" opacity="0.9"/>
  <text x="450" y="163" text-anchor="middle" font-size="9" font-weight="600" fill="#fff">Onward lending</text>

  <!-- ═══════════ ROW 2: SCLCA (y=188) ═══════════ -->

  <rect x="60" y="188" width="780" height="60" rx="5" fill="#1E40AF"/>
  <text x="450" y="214" text-anchor="middle" font-size="12" font-weight="700" fill="#fff">Catalytic Assets (Pty) Ltd — SCLCA</text>
  <text x="450" y="232" text-anchor="middle" font-size="10" fill="#bfdbfe">Onward-lends to 3 subsidiaries via intercompany loans</text>

  <!-- Arrows SCLCA → subsidiaries -->
  <line x1="187" y1="248" x2="187" y2="320" stroke="#2563eb" stroke-width="2" marker-end="url(#loanArrow)"/>
  <line x1="450" y1="248" x2="450" y2="320" stroke="#2563eb" stroke-width="2" marker-end="url(#loanArrow)"/>
  <line x1="712" y1="248" x2="712" y2="320" stroke="#2563eb" stroke-width="2" marker-end="url(#loanArrow)"/>

  <!-- ═══════════ ROW 3: Subsidiaries (y=326) ═══════════ -->

  <!-- NWL -->
  <rect x="60" y="326" width="255" height="260" rx="5" fill="#1D4ED8"/>
  <text x="187" y="354" text-anchor="middle" font-size="12" font-weight="700" fill="#fff">New Water Lanseria</text>
  <text id="env_nwl" x="187" y="372" text-anchor="middle" font-size="11" font-weight="600" fill="#bfdbfe">&#8364;9,104,041</text>
  <text x="187" y="390" text-anchor="middle" font-size="9" fill="#dbeafe">Water treatment &amp; reuse</text>
  <line x1="80" y1="402" x2="295" y2="402" stroke="#93c5fd" stroke-width="0.8" stroke-opacity="0.5"/>
  <rect x="130" y="412" width="114" height="20" rx="10" fill="#f97316"/>
  <text x="187" y="426" text-anchor="middle" font-size="9" font-weight="700" fill="#fff">LAYER 2 SECURITY</text>
  <text x="187" y="448" text-anchor="middle" font-size="9" fill="#dbeafe">Grants &amp; bulk services*</text>
  <text x="187" y="464" text-anchor="middle" font-size="9" fill="#dbeafe">+ Currency Swap**</text>
  <text x="187" y="480" text-anchor="middle" font-size="9" fill="#dbeafe">+ Veracity guarantee</text>
  <text x="187" y="496" text-anchor="middle" font-size="9" fill="#dbeafe">+ ECA cover</text>
  <line x1="80" y1="508" x2="295" y2="508" stroke="#93c5fd" stroke-width="0.8" stroke-opacity="0.5"/>
  <rect x="130" y="518" width="114" height="20" rx="10" fill="#16a34a"/>
  <text x="187" y="532" text-anchor="middle" font-size="9" font-weight="700" fill="#fff">LAYER 3 ASSETS</text>
  <text x="187" y="552" text-anchor="middle" font-size="8" fill="#dbeafe">MABR membranes (Oxymem)</text>
  <text x="187" y="566" text-anchor="middle" font-size="8" fill="#dbeafe">BoP (Colubris) + Civils</text>
  <text x="187" y="580" text-anchor="middle" font-size="8" fill="#dbeafe">CoJ LOI + JW + DWS</text>
  <line x1="162" y1="326" x2="162" y2="251" stroke="#dc2626" stroke-width="1.5" stroke-dasharray="5,3" marker-end="url(#secArrow)"/>

  <!-- LanRED -->
  <rect x="323" y="326" width="255" height="260" rx="5" fill="#B45309"/>
  <text x="450" y="354" text-anchor="middle" font-size="12" font-weight="700" fill="#fff">LanRED</text>
  <text id="env_lanred" x="450" y="372" text-anchor="middle" font-size="11" font-weight="600" fill="#fef3c7">&#8364;2,739,516</text>
  <text x="450" y="390" text-anchor="middle" font-size="9" fill="#fef3c7">Solar energy &amp; storage</text>
  <line x1="343" y1="402" x2="558" y2="402" stroke="#fbbf24" stroke-width="0.8" stroke-opacity="0.4"/>
  <rect x="393" y="412" width="114" height="20" rx="10" fill="#f97316"/>
  <text x="450" y="426" text-anchor="middle" font-size="9" font-weight="700" fill="#fff">LAYER 2 SECURITY</text>
  <text x="450" y="448" text-anchor="middle" font-size="9" fill="#fef3c7">Underwrite*** or</text>
  <text x="450" y="464" text-anchor="middle" font-size="9" fill="#fef3c7">Currency Swap**</text>
  <text x="450" y="480" text-anchor="middle" font-size="9" fill="#fef3c7">+ ECA&#8224;</text>
  <line x1="343" y1="508" x2="558" y2="508" stroke="#fbbf24" stroke-width="0.8" stroke-opacity="0.4"/>
  <rect x="393" y="518" width="114" height="20" rx="10" fill="#16a34a"/>
  <text x="450" y="532" text-anchor="middle" font-size="9" font-weight="700" fill="#fff">LAYER 3 ASSETS</text>
  <text x="450" y="552" text-anchor="middle" font-size="8" fill="#fef3c7">Solar PV 2.4 MWp + BESS 1.5 MWh</text>
  <text x="450" y="566" text-anchor="middle" font-size="8" fill="#fef3c7">Brownfield: 5 sites (R60M)</text>
  <text x="450" y="580" text-anchor="middle" font-size="8" fill="#fef3c7">20-yr PPAs, Day 1 revenue</text>
  <line x1="425" y1="326" x2="425" y2="251" stroke="#dc2626" stroke-width="1.5" stroke-dasharray="5,3" marker-end="url(#secArrow)"/>

  <!-- Timberworx -->
  <rect x="585" y="326" width="255" height="260" rx="5" fill="#78350F"/>
  <text x="712" y="354" text-anchor="middle" font-size="12" font-weight="700" fill="#fff">Timberworx</text>
  <text id="env_twx" x="712" y="372" text-anchor="middle" font-size="11" font-weight="600" fill="#fde68a">&#8364;1,753,747</text>
  <text x="712" y="390" text-anchor="middle" font-size="9" fill="#fed7aa">CoE + Mfg timber panels</text>
  <line x1="605" y1="402" x2="820" y2="402" stroke="#fbbf24" stroke-width="0.8" stroke-opacity="0.4"/>
  <rect x="655" y="412" width="114" height="20" rx="10" fill="#f97316"/>
  <text x="712" y="426" text-anchor="middle" font-size="9" font-weight="700" fill="#fff">LAYER 2 SECURITY</text>
  <text x="712" y="448" text-anchor="middle" font-size="9" fill="#fed7aa">Phoenix corporate</text>
  <text x="712" y="464" text-anchor="middle" font-size="9" fill="#fed7aa">guarantee</text>
  <text x="712" y="480" text-anchor="middle" font-size="9" fill="#fed7aa">+ ECA cover</text>
  <line x1="605" y1="508" x2="820" y2="508" stroke="#fbbf24" stroke-width="0.8" stroke-opacity="0.4"/>
  <rect x="655" y="518" width="114" height="20" rx="10" fill="#16a34a"/>
  <text x="712" y="532" text-anchor="middle" font-size="9" font-weight="700" fill="#fff">LAYER 3 ASSETS</text>
  <text id="env_twx_coe" x="712" y="552" text-anchor="middle" font-size="8" fill="#fed7aa">CoE building (&#8364;1,662,124)</text>
  <text id="env_twx_panel" x="712" y="566" text-anchor="middle" font-size="8" fill="#fed7aa">Panel equipment (&#8364;200,000)</text>
  <text x="712" y="580" text-anchor="middle" font-size="8" fill="#fed7aa">Timber pipeline R177.9M</text>
  <line x1="688" y1="326" x2="688" y2="251" stroke="#dc2626" stroke-width="1.5" stroke-dasharray="5,3" marker-end="url(#secArrow)"/>

  <!-- ═══════════ Atradius note ═══════════ -->

  <rect x="130" y="604" width="640" height="28" rx="5" fill="#DBEAFE" stroke="#93C5FD" stroke-width="1"/>
  <text x="450" y="622" text-anchor="middle" font-size="10" fill="#1E40AF" font-weight="600">Atradius DSB (Netherlands) ECA cover to be applied for on all three envelopes.</text>

  <!-- ═══════════ Footnotes ═══════════ -->

  <text x="60" y="660" font-size="8.5" fill="#6B7280">* Sovereign risk (DTIC + GEPF)</text>
  <text x="60" y="676" font-size="8.5" fill="#6B7280">** Bank-to-bank risk (Investec)</text>
  <text x="60" y="692" font-size="8.5" fill="#6B7280">*** Insurance company risk</text>
  <text x="360" y="660" font-size="8.5" fill="#6B7280">&#8224; May be absent/thin depending on Dutch content</text>
  <text x="360" y="676" font-size="8.5" fill="#6B7280">NWL: New Water Lanseria (Pty) Ltd | LanRED: LanRED (Pty) Ltd | TWX: Timber Worx (Pty) Ltd</text>

  <!-- ═══════════ LEGEND ═══════════ -->
  <line x1="30" y1="710" x2="870" y2="710" stroke="#E5E7EB" stroke-width="0.8"/>

  <line x1="60" y1="732" x2="90" y2="732" stroke="#2563eb" stroke-width="2" marker-end="url(#loanArrow)"/>
  <text x="97" y="736" font-size="8" fill="#6B7280">Loan flow</text>

  <line x1="170" y1="732" x2="200" y2="732" stroke="#dc2626" stroke-width="1.5" stroke-dasharray="5,3" marker-end="url(#secArrow)"/>
  <text x="207" y="736" font-size="8" fill="#6B7280">Security / recourse</text>

  <rect x="320" y="726" width="10" height="10" rx="2" fill="#1D4ED8"/>
  <text x="336" y="735" font-size="8" fill="#6B7280">NWL</text>

  <rect x="370" y="726" width="10" height="10" rx="2" fill="#B45309"/>
  <text x="386" y="735" font-size="8" fill="#6B7280">LanRED</text>

  <rect x="430" y="726" width="10" height="10" rx="2" fill="#78350F"/>
  <text x="446" y="735" font-size="8" fill="#6B7280">Timberworx</text>

  <rect x="510" y="727" width="28" height="12" rx="6" fill="#f97316"/>
  <text x="524" y="736" text-anchor="middle" font-size="7" fill="#fff" font-weight="600">L2</text>
  <text x="546" y="735" font-size="8" fill="#6B7280">Layer 2 Security</text>

  <rect x="630" y="727" width="28" height="12" rx="6" fill="#16a34a"/>
  <text x="644" y="736" text-anchor="middle" font-size="7" fill="#fff" font-weight="600">L3</text>
  <text x="666" y="735" font-size="8" fill="#6B7280">Layer 3 Assets</text>

</svg>