<svg width="820" height="380" viewBox="0 0 820 380" fill="none" xmlns="http://www.w3.org/2000/svg">
  <rect width="820" height="380" rx="12" fill="white" stroke="#E5E7EB" stroke-width="1"/>

  <text x="410" y="30" text-anchor="middle" font-family="Arial, sans-serif" font-size="16" fill="#1F2937" font-weight="bold">Timberworx — Ownership Transition</text>

  <!-- ==================== CURRENT (LEFT) ==================== -->
  <text x="205" y="62" text-anchor="middle" font-family="Arial, sans-serif" font-size="13" fill="#6B7280" font-weight="bold">Current Structure</text>
  <rect x="35" y="70" width="340" height="4" rx="2" fill="#E5E7EB"/>

  <!-- VanSquare (current majority) -->
  <rect x="50" y="90" width="145" height="60" rx="8" fill="#FFF7ED" stroke="#F97316" stroke-width="1.5"/>
  <text x="122" y="117" text-anchor="middle" font-family="Arial, sans-serif" font-size="11" fill="#F97316" font-weight="bold">VanSquare</text>
  <text x="122" y="137" text-anchor="middle" font-family="Arial, sans-serif" font-size="10" fill="#6B7280">Co-shareholder</text>

  <!-- CA (current minority) -->
  <rect x="215" y="90" width="145" height="60" rx="8" fill="#F0FDF4" stroke="#16A34A" stroke-width="1.5"/>
  <text x="287" y="112" text-anchor="middle" font-family="Arial, sans-serif" font-size="10" fill="#6B7280">Smart City Lanseria</text>
  <text x="287" y="128" text-anchor="middle" font-family="Arial, sans-serif" font-size="11" fill="#16A34A" font-weight="bold">Catalytic Assets</text>

  <!-- Arrows with percentages -->
  <path d="M122,150 L122,195" stroke="#F97316" stroke-width="1.5" fill="none"/>
  <polygon points="122,195 118,187 126,187" fill="#F97316"/>
  <text x="140" y="178" text-anchor="start" font-family="Arial, sans-serif" font-size="11" fill="#F97316" font-weight="bold">95%</text>

  <path d="M287,150 L287,195" stroke="#16A34A" stroke-width="1.5" fill="none"/>
  <polygon points="287,195 283,187 291,187" fill="#16A34A"/>
  <text x="295" y="178" text-anchor="start" font-family="Arial, sans-serif" font-size="11" fill="#16A34A" font-weight="bold">5%</text>

  <!-- TWX current -->
  <rect x="70" y="200" width="270" height="65" rx="8" fill="#FDF4E7" stroke="#8B4513" stroke-width="1.5"/>
  <text x="205" y="227" text-anchor="middle" font-family="Arial, sans-serif" font-size="13" fill="#8B4513" font-weight="bold">Timberworx</text>
  <text x="205" y="247" text-anchor="middle" font-family="Arial, sans-serif" font-size="10" fill="#6B7280">Timber Worx (Pty) Ltd</text>

  <!-- ==================== TRANSITION ARROW ==================== -->
  <path d="M395,165 L425,165" stroke="#6B7280" stroke-width="2" fill="none"/>
  <polygon points="425,165 417,161 417,169" fill="#6B7280"/>
  <text x="410" y="155" text-anchor="middle" font-family="Arial, sans-serif" font-size="10" fill="#6B7280" font-style="italic">Future</text>

  <!-- ==================== FUTURE (RIGHT) ==================== -->
  <text x="615" y="62" text-anchor="middle" font-family="Arial, sans-serif" font-size="13" fill="#6B7280" font-weight="bold">Future Structure</text>
  <rect x="445" y="70" width="340" height="4" rx="2" fill="#2563EB" opacity="0.3"/>

  <!-- NexusNovus (future) -->
  <rect x="448" y="90" width="105" height="60" rx="8" fill="#F0FDF4" stroke="#16A34A" stroke-width="1.5"/>
  <text x="500" y="117" text-anchor="middle" font-family="Arial, sans-serif" font-size="11" fill="#16A34A" font-weight="bold">NexusNovus</text>
  <text x="500" y="137" text-anchor="middle" font-family="Arial, sans-serif" font-size="10" fill="#6B7280">Partner</text>

  <!-- Eckhardt, Werner (future) -->
  <rect x="563" y="90" width="105" height="60" rx="8" fill="#FEF3C7" stroke="#D97706" stroke-width="1.5"/>
  <text x="615" y="112" text-anchor="middle" font-family="Arial, sans-serif" font-size="11" fill="#D97706" font-weight="bold">Eckhardt</text>
  <text x="615" y="128" text-anchor="middle" font-family="Arial, sans-serif" font-size="10" fill="#6B7280">Werner</text>

  <!-- CA (future minority) -->
  <rect x="678" y="90" width="105" height="60" rx="8" fill="#F0FDF4" stroke="#16A34A" stroke-width="1.5"/>
  <text x="730" y="112" text-anchor="middle" font-family="Arial, sans-serif" font-size="10" fill="#6B7280">Catalytic</text>
  <text x="730" y="128" text-anchor="middle" font-family="Arial, sans-serif" font-size="11" fill="#16A34A" font-weight="bold">Assets</text>

  <!-- Arrows down -->
  <path d="M500,150 L500,195" stroke="#16A34A" stroke-width="1.5" fill="none"/>
  <polygon points="500,195 496,187 504,187" fill="#16A34A"/>

  <path d="M615,150 L615,195" stroke="#D97706" stroke-width="1.5" fill="none"/>
  <polygon points="615,195 611,187 619,187" fill="#D97706"/>

  <path d="M730,150 L730,195" stroke="#16A34A" stroke-width="1.5" fill="none"/>
  <polygon points="730,195 726,187 734,187" fill="#16A34A"/>

  <text x="516" y="178" text-anchor="start" font-family="Arial, sans-serif" font-size="10" fill="#16A34A" font-weight="bold">TBD%</text>
  <text x="631" y="178" text-anchor="start" font-family="Arial, sans-serif" font-size="10" fill="#D97706" font-weight="bold">TBD%</text>
  <text x="746" y="178" text-anchor="start" font-family="Arial, sans-serif" font-size="10" fill="#16A34A" font-weight="bold">5%</text>

  <!-- TWX future -->
  <rect x="470" y="200" width="290" height="65" rx="8" fill="#FDF4E7" stroke="#8B4513" stroke-width="2"/>
  <text x="615" y="227" text-anchor="middle" font-family="Arial, sans-serif" font-size="13" fill="#8B4513" font-weight="bold">Timberworx</text>
  <text x="615" y="247" text-anchor="middle" font-family="Arial, sans-serif" font-size="10" fill="#6B7280">Timber Worx (Pty) Ltd</text>

  <!-- Footnote -->
  <text x="410" y="305" text-anchor="middle" font-family="Arial, sans-serif" font-size="10" fill="#9CA3AF">VanSquare's 95% stake transitions to NexusNovus and Eckhardt, Werner. SCLCA retains 5% minority.</text>
  <text x="410" y="325" text-anchor="middle" font-family="Arial, sans-serif" font-size="10" fill="#9CA3AF">Exact future percentages to be determined upon restructuring.</text>
  <text x="410" y="355" text-anchor="middle" font-family="Arial, sans-serif" font-size="10" fill="#B0B0B0" font-style="italic">Reg: 2024/431134/07</text>
</svg>
