<?xml version="1.0" encoding="UTF-8" standalone="no"?>
<!-- Created with Inkscape (http://www.inkscape.org/) -->
<svg
   xmlns:svg="http://www.w3.org/2000/svg"
   xmlns="http://www.w3.org/2000/svg"
   version="1.0"
   width="500"
   height="166.17999"
   id="svg2">
  <defs
     id="defs4">
    <clipPath
       id="clipPath2656">
      <path
         d="M 428.314,601.511 L 559.275,601.511 L 559.275,612.847 L 428.314,612.847 L 428.314,601.511 z"
         id="path2658" />
    </clipPath>
    <clipPath
       id="clipPath2640">
      <path
         d="M 0,205.815 L 595.275,205.815 L 595.275,586.186 L 0,586.186 L 0,205.815 z"
         id="path2642" />
    </clipPath>
    <clipPath
       id="clipPath2620">
      <path
         d="M 0,0 L 595.276,0 L 595.276,841.89 L 0,841.89 L 0,0 z"
         id="path2622" />
    </clipPath>
    <clipPath
       id="clipPath2454">
      <path
         d="M 59.361,748.619 L 235.275,748.619 L 235.275,802.205 L 59.361,802.205 L 59.361,748.619 z"
         id="path2456" />
    </clipPath>
    <clipPath
       id="clipPath2434">
      <path
         d="M 59.361,748.619 L 235.275,748.619 L 235.275,802.204 L 59.361,802.204 L 59.361,748.619 z"
         id="path2436" />
    </clipPath>
    <clipPath
       id="clipPath2420">
      <path
         d="M 0,0 L 595.276,0 L 595.276,841.89 L 0,841.89 L 0,0 z"
         id="path2422" />
    </clipPath>
  </defs>
  <g
     transform="translate(-195.79444,-5.3745362)"
     id="layer1">
    <g
       transform="matrix(2.1834092,0,0,2.1834092,-221.70495,-169.34475)"
       id="g3273">
      <g
         transform="matrix(1.25,0,0,-1.25,121.57163,1087.3248)"
         id="g2430">
        <g
           clip-path="url(#clipPath2434)"
           id="g2432">
          <g
             transform="translate(97.5475,764.4458)"
             id="g2438">
            <path
               d="M 0,0 L -11.248,6.721 L -10.7,-6.402 C -10.653,-7.544 -10.744,-8.414 -11.979,-8.549 C -13.534,-8.732 -13.671,-7.179 -13.762,-6.584 L -16.277,10.563 C -16.324,10.928 -16.551,11.751 -14.723,12.802 C -13.214,13.67 -12.71,13.487 -12.071,12.986 L 1.6,2.561 C 2.24,2.058 3.201,1.326 2.378,0.183 C 1.645,-0.822 0.96,-0.548 0,0"
               id="path2440"
               style="fill:#a41d23;fill-opacity:1;fill-rule:nonzero;stroke:none" />
          </g>
          <g
             transform="translate(98.8278,791.604)"
             id="g2442">
            <path
               d="M 0,0 L -13.625,-10.744 C -13.899,-10.973 -14.494,-11.613 -16.324,-10.562 C -17.831,-9.693 -17.923,-9.143 -17.831,-8.321 L -15.638,8.733 C -15.545,9.557 -15.316,10.699 -13.945,10.563 C -12.711,10.426 -12.619,9.739 -12.619,8.642 L -12.802,-4.481 L -1.692,2.561 C -0.732,3.201 0.046,3.521 0.777,2.516 C 1.691,1.235 0.457,0.367 0,0"
               id="path2444"
               style="fill:#e42d35;fill-opacity:1;fill-rule:nonzero;stroke:none" />
          </g>
          <g
             transform="translate(78.2526,776.6528)"
             id="g2446">
            <path
               d="M 0,0 L -15.866,-6.629 C -16.643,-6.949 -17.785,-7.36 -18.334,-6.08 C -18.837,-4.938 -18.243,-4.526 -17.283,-3.978 L -5.852,2.423 L -17.511,8.504 C -18.563,9.054 -19.202,9.556 -18.7,10.7 C -18.061,12.162 -16.733,11.477 -16.14,11.248 L 0,4.848 C 0.32,4.709 1.143,4.527 1.143,2.423 C 1.143,0.686 0.732,0.32 0,0"
               id="path2448"
               style="fill:#626b71;fill-opacity:1;fill-rule:nonzero;stroke:none" />
          </g>
        </g>
      </g>
      <g
         transform="matrix(1.25,0,0,-1.25,121.57163,1087.3248)"
         id="g2450">
        <g
           clip-path="url(#clipPath2454)"
           id="g2452">
          <g
             transform="translate(115.8356,779.9912)"
             id="g2458">
            <path
               d="M 0,0 C -4.939,0 -7.225,-1.189 -7.225,-3.749 C -7.225,-5.853 -6.218,-6.722 -3.978,-6.722 C -2.058,-6.722 -0.321,-5.624 0,-5.305 L 0,0 z M 1.326,-9.648 L 0.64,-7.773 C 0.046,-8.184 -2.56,-10.105 -5.578,-10.105 C -9.099,-10.105 -11.568,-8.048 -11.568,-3.886 C -11.568,2.561 -4.435,2.514 0,2.514 L 0,2.972 C 0,5.99 0,7.223 -3.704,7.223 C -5.213,7.223 -6.218,7.132 -8.688,6.767 L -9.236,9.51 C -8.551,9.739 -4.984,10.699 -1.783,10.699 C 0.64,10.699 2.24,10.15 3.154,8.87 C 3.978,7.727 4.207,6.4 4.207,2.698 L 4.207,-9.648 L 1.326,-9.648 z"
               id="path2460"
               style="fill:#626b71;fill-opacity:1;fill-rule:nonzero;stroke:none" />
          </g>
          <g
             transform="translate(130.3747,769.8408)"
             id="g2462">
            <path
               d="M 0,0 C -2.012,0 -3.475,0.823 -4.207,2.195 C -4.664,3.064 -4.846,4.115 -4.846,6.812 L -4.846,17.42 L -8.322,17.42 L -8.322,19.843 L -4.664,20.255 L -3.11,25.787 L -0.55,25.787 L -0.55,20.392 L 5.075,20.392 L 5.075,17.42 L -0.55,17.42 L -0.55,7.132 C -0.55,4.251 -0.459,3.338 1.6,3.338 C 2.606,3.338 3.565,3.521 5.21,3.931 L 5.851,1.326 C 3.383,0.412 1.691,0 0,0"
               id="path2464"
               style="fill:#626b71;fill-opacity:1;fill-rule:nonzero;stroke:none" />
          </g>
          <g
             transform="translate(143.2223,785.1118)"
             id="g2466">
            <path
               d="M 0,0 L 0,-14.768 L -4.298,-14.768 L -4.298,5.121 L -0.686,5.121 L -0.229,3.018 C 1.417,4.618 3.52,5.441 5.578,5.441 C 5.898,5.441 6.218,5.441 6.538,5.395 L 6.538,2.058 C 4.115,2.058 1.874,1.372 0,0"
               id="path2468"
               style="fill:#626b71;fill-opacity:1;fill-rule:nonzero;stroke:none" />
          </g>
          <g
             transform="translate(161.686,779.9912)"
             id="g2470">
            <path
               d="M 0,0 C -4.94,0 -7.226,-1.189 -7.226,-3.749 C -7.226,-5.853 -6.22,-6.722 -3.981,-6.722 C -2.058,-6.722 -0.322,-5.624 0,-5.305 L 0,0 z M 1.322,-9.648 L 0.639,-7.773 C 0.044,-8.184 -2.563,-10.105 -5.58,-10.105 C -9.102,-10.105 -11.571,-8.048 -11.571,-3.886 C -11.571,2.561 -4.435,2.514 0,2.514 L 0,2.972 C 0,5.99 0,7.223 -3.705,7.223 C -5.214,7.223 -6.22,7.132 -8.69,6.767 L -9.237,9.51 C -8.551,9.739 -4.986,10.699 -1.785,10.699 C 0.639,10.699 2.239,10.15 3.152,8.87 C 3.976,7.727 4.202,6.4 4.202,2.698 L 4.202,-9.648 L 1.322,-9.648 z"
               id="path2472"
               style="fill:#626b71;fill-opacity:1;fill-rule:nonzero;stroke:none" />
          </g>
          <g
             transform="translate(183.082,785.2944)"
             id="g2474">
            <path
               d="M 0,0 C -0.734,0.503 -2.287,1.692 -4.664,1.692 C -7.545,1.692 -9.192,-0.411 -9.192,-4.893 C -9.192,-9.692 -7.636,-11.75 -4.801,-11.75 C -2.016,-11.75 -0.366,-10.242 0,-10.013 L 0,0 z M 1.418,-14.951 L 0.776,-12.894 C 0.458,-13.122 -2.377,-15.408 -5.854,-15.408 C -10.424,-15.408 -13.672,-11.977 -13.672,-5.075 C -13.672,1.464 -10.424,5.396 -5.579,5.396 C -2.742,5.396 -0.641,3.749 0,3.248 L 1.371,11.751 L 4.298,11.751 L 4.298,-14.951 L 1.418,-14.951 z"
               id="path2476"
               style="fill:#626b71;fill-opacity:1;fill-rule:nonzero;stroke:none" />
          </g>
          <path
             d="M 192.088,790.233 L 196.383,790.233 L 196.383,770.343 L 192.088,770.343 L 192.088,790.233 z"
             id="path2478"
             style="fill:#626b71;fill-opacity:1;fill-rule:nonzero;stroke:none" />
          <g
             transform="translate(214.762,770.3433)"
             id="g2480">
            <path
               d="M 0,0 L -0.637,2.058 C -1.186,1.509 -4.02,-0.457 -7.539,-0.457 C -9.643,-0.457 -11.289,0.046 -12.295,1.053 C -13.756,2.516 -13.895,4.801 -13.895,6.95 L -13.895,19.89 L -9.602,19.89 L -9.602,7.453 C -9.602,5.167 -9.551,3.201 -6.125,3.201 C -3.793,3.201 -1.504,4.665 -1.412,4.801 L -1.412,19.89 L 2.889,19.89 L 2.889,0 L 0,0 z"
               id="path2482"
               style="fill:#626b71;fill-opacity:1;fill-rule:nonzero;stroke:none" />
          </g>
          <g
             transform="translate(227.387,769.8862)"
             id="g2484">
            <path
               d="M 0,0 C -2.108,0 -3.889,0.274 -6.496,0.915 L -5.805,3.794 C -3.705,3.338 -2.108,3.156 -0.688,3.156 C 2.197,3.156 3.519,4.071 3.519,5.899 C 3.519,7.453 3.058,8.047 0.182,8.825 C -3.613,9.83 -6.221,11.11 -6.221,14.678 C -6.221,18.518 -3.477,20.712 1.051,20.712 C 2.744,20.712 4.754,20.392 7.035,19.661 L 6.4,16.963 C 4.98,17.237 3.107,17.604 1.601,17.604 C -0.645,17.604 -1.922,16.826 -1.922,15.134 C -1.922,10.974 7.863,13.625 7.863,6.538 C 7.863,2.378 5.023,0 0,0"
               id="path2486"
               style="fill:#626b71;fill-opacity:1;fill-rule:nonzero;stroke:none" />
          </g>
          <g
             transform="translate(110.1217,750.8999)"
             id="g2488">
            <path
               d="M 0,0 L 0,2.961 C 0,3.6 0.054,4.184 -0.605,4.184 C -0.843,4.184 -1.07,4.118 -1.514,3.956 L -1.514,0 L -2.789,0 L -2.789,2.961 C -2.789,3.6 -2.735,4.184 -3.395,4.184 C -3.622,4.184 -3.805,4.129 -4.303,3.956 L -4.303,0 L -5.578,0 L -5.578,5.135 L -4.378,5.135 L -4.378,4.713 C -3.675,5.08 -3.211,5.253 -2.778,5.253 C -2.259,5.253 -1.913,5.059 -1.708,4.648 C -1.189,4.929 -0.563,5.253 0.021,5.253 C 1.254,5.253 1.275,4.227 1.275,3.254 L 1.275,0 L 0,0 z"
               id="path2490"
               style="fill:#626b71;fill-opacity:1;fill-rule:nonzero;stroke:none" />
          </g>
          <g
             transform="translate(115.2131,753.3423)"
             id="g2492">
            <path
               d="M 0,0 C -1.21,-0.064 -1.578,-0.259 -1.578,-0.864 C -1.578,-1.384 -1.319,-1.6 -0.94,-1.6 C -0.583,-1.6 0,-1.384 0,-1.384 L 0,0 z M 0.054,-2.442 L 0.054,-1.968 C -0.595,-2.346 -1.07,-2.562 -1.513,-2.562 C -2.281,-2.562 -2.854,-2.011 -2.854,-0.962 C -2.854,-0.454 -2.735,-0.064 -2.476,0.194 C -1.946,0.725 -0.865,0.692 0,0.692 L 0,0.833 C 0,1.546 -0.065,1.806 -0.908,1.806 C -1.286,1.806 -1.729,1.751 -2.389,1.632 L -2.519,2.421 C -1.643,2.671 -0.854,2.811 -0.292,2.811 C 0.368,2.811 0.778,2.638 1.005,2.281 C 1.211,1.956 1.265,1.61 1.265,0.638 L 1.265,-2.442 L 0.054,-2.442 z"
               id="path2494"
               style="fill:#626b71;fill-opacity:1;fill-rule:nonzero;stroke:none" />
          </g>
          <g
             transform="translate(120.8776,750.8999)"
             id="g2496">
            <path
               d="M 0,0 L 0,3.113 C 0,3.771 -0.054,4.161 -0.713,4.161 C -1.038,4.161 -1.427,4.097 -1.838,3.956 L -1.838,0 L -3.146,0 L -3.146,5.135 L -1.924,5.135 L -1.924,4.68 C -1.167,5.08 -0.595,5.253 -0.076,5.253 C 0.443,5.253 0.854,5.048 1.07,4.701 C 1.265,4.398 1.308,4.129 1.308,3.307 L 1.308,0 L 0,0 z"
               id="path2498"
               style="fill:#626b71;fill-opacity:1;fill-rule:nonzero;stroke:none" />
          </g>
          <g
             transform="translate(126.0011,753.3423)"
             id="g2500">
            <path
               d="M 0,0 C -1.21,-0.064 -1.578,-0.259 -1.578,-0.864 C -1.578,-1.384 -1.319,-1.6 -0.94,-1.6 C -0.583,-1.6 0,-1.384 0,-1.384 L 0,0 z M 0.054,-2.442 L 0.054,-1.968 C -0.594,-2.346 -1.07,-2.562 -1.513,-2.562 C -2.281,-2.562 -2.854,-2.011 -2.854,-0.962 C -2.854,-0.454 -2.735,-0.064 -2.475,0.194 C -1.946,0.725 -0.865,0.692 0,0.692 L 0,0.833 C 0,1.546 -0.064,1.806 -0.908,1.806 C -1.286,1.806 -1.729,1.751 -2.389,1.632 L -2.518,2.421 C -1.643,2.671 -0.854,2.811 -0.291,2.811 C 0.368,2.811 0.778,2.638 1.005,2.281 C 1.211,1.956 1.265,1.61 1.265,0.638 L 1.265,-2.442 L 0.054,-2.442 z"
               id="path2502"
               style="fill:#626b71;fill-opacity:1;fill-rule:nonzero;stroke:none" />
          </g>
          <g
             transform="translate(131.5578,754.8452)"
             id="g2504">
            <path
               d="M 0,0 C -0.519,0.184 -0.692,0.216 -0.962,0.216 C -1.622,0.216 -1.957,-0.313 -1.957,-1.352 C -1.957,-2.422 -1.643,-2.897 -0.995,-2.897 C -0.746,-2.897 -0.53,-2.854 0,-2.67 L 0,0 z M 0.811,-5.578 C 0.443,-6 -0.162,-6.226 -1.016,-6.226 C -1.535,-6.226 -2.151,-6.15 -2.919,-5.988 L -2.822,-5.21 C -2.303,-5.275 -1.968,-5.287 -1.6,-5.287 C -0.887,-5.287 -0.443,-5.156 -0.227,-4.843 C -0.054,-4.594 0,-4.281 0,-3.578 L 0,-3.405 C -0.508,-3.697 -1.038,-3.957 -1.579,-3.957 C -2.638,-3.957 -3.33,-3.006 -3.33,-1.384 C -3.33,0.238 -2.605,1.308 -1.492,1.308 C -0.973,1.308 -0.411,1.006 0.097,0.713 L 0.097,1.19 L 1.308,1.19 L 1.308,-3.287 C 1.308,-4.778 1.221,-5.113 0.811,-5.578"
               id="path2506"
               style="fill:#626b71;fill-opacity:1;fill-rule:nonzero;stroke:none" />
          </g>
          <path
             d="M 134.184,756.035 L 135.492,756.035 L 135.492,750.9 L 134.184,750.9 L 134.184,756.035 z M 134.844,756.92 C 134.433,756.92 134.098,757.255 134.098,757.667 C 134.098,758.078 134.433,758.412 134.844,758.412 C 135.255,758.412 135.579,758.078 135.579,757.667 C 135.579,757.255 135.255,756.92 134.844,756.92"
             id="path2508"
             style="fill:#626b71;fill-opacity:1;fill-rule:nonzero;stroke:none" />
          <g
             transform="translate(139.9567,750.8999)"
             id="g2510">
            <path
               d="M 0,0 L 0,3.113 C 0,3.771 -0.054,4.161 -0.713,4.161 C -1.038,4.161 -1.427,4.097 -1.837,3.956 L -1.837,0 L -3.145,0 L -3.145,5.135 L -1.924,5.135 L -1.924,4.68 C -1.168,5.08 -0.594,5.253 -0.076,5.253 C 0.443,5.253 0.854,5.048 1.07,4.701 C 1.265,4.398 1.308,4.129 1.308,3.307 L 1.308,0 L 0,0 z"
               id="path2512"
               style="fill:#626b71;fill-opacity:1;fill-rule:nonzero;stroke:none" />
          </g>
          <g
             transform="translate(145.5563,754.8452)"
             id="g2514">
            <path
               d="M 0,0 C -0.519,0.184 -0.692,0.216 -0.962,0.216 C -1.622,0.216 -1.957,-0.313 -1.957,-1.352 C -1.957,-2.422 -1.643,-2.897 -0.995,-2.897 C -0.746,-2.897 -0.53,-2.854 0,-2.67 L 0,0 z M 0.811,-5.578 C 0.443,-6 -0.162,-6.226 -1.016,-6.226 C -1.535,-6.226 -2.151,-6.15 -2.918,-5.988 L -2.821,-5.21 C -2.302,-5.275 -1.967,-5.287 -1.6,-5.287 C -0.886,-5.287 -0.443,-5.156 -0.227,-4.843 C -0.054,-4.594 0,-4.281 0,-3.578 L 0,-3.405 C -0.508,-3.697 -1.038,-3.957 -1.578,-3.957 C -2.638,-3.957 -3.33,-3.006 -3.33,-1.384 C -3.33,0.238 -2.605,1.308 -1.492,1.308 C -0.973,1.308 -0.411,1.006 0.097,0.713 L 0.097,1.19 L 1.308,1.19 L 1.308,-3.287 C 1.308,-4.778 1.222,-5.113 0.811,-5.578"
               id="path2516"
               style="fill:#626b71;fill-opacity:1;fill-rule:nonzero;stroke:none" />
          </g>
          <g
             transform="translate(153.3503,754.9966)"
             id="g2518">
            <path
               d="M 0,0 C -0.454,0 -0.811,-0.054 -1.265,-0.249 L -1.265,-4.097 L -2.572,-4.097 L -2.572,1.038 L -1.352,1.038 L -1.352,0.519 C -0.789,0.94 -0.303,1.124 0.205,1.124 C 0.292,1.124 0.4,1.113 0.4,1.113 L 0.4,-0.022 C 0.227,0 0.13,0 0,0"
               id="path2520"
               style="fill:#626b71;fill-opacity:1;fill-rule:nonzero;stroke:none" />
          </g>
          <path
             d="M 154.421,756.035 L 155.729,756.035 L 155.729,750.9 L 154.421,750.9 L 154.421,756.035 z M 155.08,756.92 C 154.669,756.92 154.335,757.255 154.335,757.667 C 154.335,758.078 154.669,758.412 155.08,758.412 C 155.491,758.412 155.815,758.078 155.815,757.667 C 155.815,757.255 155.491,756.92 155.08,756.92"
             id="path2522"
             style="fill:#626b71;fill-opacity:1;fill-rule:nonzero;stroke:none" />
          <g
             transform="translate(158.3112,750.7808)"
             id="g2524">
            <path
               d="M 0,0 C -0.508,0 -1.004,0.075 -1.686,0.238 L -1.502,1.092 C -0.961,0.973 -0.551,0.918 -0.172,0.918 C 0.509,0.918 0.844,1.135 0.844,1.545 C 0.844,1.924 0.703,2.054 -0.021,2.227 C -1.004,2.465 -1.643,2.821 -1.643,3.74 C -1.643,4.768 -0.939,5.351 0.281,5.351 C 0.746,5.351 1.287,5.264 1.893,5.08 L 1.731,4.291 C 1.492,4.346 0.941,4.453 0.477,4.453 C -0.043,4.453 -0.355,4.259 -0.355,3.881 C -0.355,2.887 2.153,3.61 2.153,1.751 C 2.153,0.627 1.373,0 0,0"
               id="path2526"
               style="fill:#626b71;fill-opacity:1;fill-rule:nonzero;stroke:none" />
          </g>
          <g
             transform="translate(164.592,750.8999)"
             id="g2528">
            <path
               d="M 0,0 L -1.891,2.508 L -1.891,0 L -3.199,0 L -3.199,7.674 L -1.891,7.674 L -1.891,2.94 L -0.01,5.135 L 1.373,5.135 L -0.746,2.832 L 1.502,0 L 0,0 z"
               id="path2530"
               style="fill:#626b71;fill-opacity:1;fill-rule:nonzero;stroke:none" />
          </g>
          <g
             transform="translate(167.223,749.2891)"
             id="g2532">
            <path
               d="M 0,0 L -0.897,0.324 L -0.195,2.637 L 1.319,2.637 L 0,0 z"
               id="path2534"
               style="fill:#626b71;fill-opacity:1;fill-rule:nonzero;stroke:none" />
          </g>
          <g
             transform="translate(174.051,755.2983)"
             id="g2536">
            <path
               d="M 0,0 C -0.617,0 -0.951,-0.465 -1.038,-1.34 L 0.897,-1.242 C 0.865,-0.399 0.594,0 0,0 M -1.059,-2.031 L -1.059,-2.184 C -1.059,-3.112 -0.669,-3.502 0.076,-3.502 C 0.519,-3.502 0.962,-3.438 1.773,-3.178 L 2,-3.924 C 0.94,-4.377 0.346,-4.518 -0.27,-4.518 C -1.556,-4.518 -2.421,-3.588 -2.421,-1.967 C -2.421,-0.302 -1.578,0.854 -0.097,0.854 C 1.352,0.854 2.086,0.012 2.086,-1.815 L 2.086,-2.031 L -1.059,-2.031 z"
               id="path2538"
               style="fill:#626b71;fill-opacity:1;fill-rule:nonzero;stroke:none" />
          </g>
          <g
             transform="translate(180.31,750.8999)"
             id="g2540">
            <path
               d="M 0,0 L 0,3.113 C 0,3.771 -0.053,4.161 -0.714,4.161 C -1.038,4.161 -1.427,4.097 -1.838,3.956 L -1.838,0 L -3.145,0 L -3.145,5.135 L -1.925,5.135 L -1.925,4.68 C -1.167,5.08 -0.595,5.253 -0.075,5.253 C 0.443,5.253 0.854,5.048 1.07,4.701 C 1.265,4.398 1.308,4.129 1.308,3.307 L 1.308,0 L 0,0 z"
               id="path2542"
               style="fill:#626b71;fill-opacity:1;fill-rule:nonzero;stroke:none" />
          </g>
          <g
             transform="translate(185.434,753.3423)"
             id="g2544">
            <path
               d="M 0,0 C -1.211,-0.064 -1.578,-0.259 -1.578,-0.864 C -1.578,-1.384 -1.319,-1.6 -0.941,-1.6 C -0.584,-1.6 0,-1.384 0,-1.384 L 0,0 z M 0.054,-2.442 L 0.054,-1.968 C -0.594,-2.346 -1.07,-2.562 -1.513,-2.562 C -2.281,-2.562 -2.853,-2.011 -2.853,-0.962 C -2.853,-0.454 -2.735,-0.064 -2.475,0.194 C -1.946,0.725 -0.865,0.692 0,0.692 L 0,0.833 C 0,1.546 -0.065,1.806 -0.908,1.806 C -1.287,1.806 -1.73,1.751 -2.388,1.632 L -2.519,2.421 C -1.643,2.671 -0.854,2.811 -0.292,2.811 C 0.367,2.811 0.778,2.638 1.005,2.281 C 1.211,1.956 1.265,1.61 1.265,0.638 L 1.265,-2.442 L 0.054,-2.442 z"
               id="path2546"
               style="fill:#626b71;fill-opacity:1;fill-rule:nonzero;stroke:none" />
          </g>
          <g
             transform="translate(190.266,755.0718)"
             id="g2548">
            <path
               d="M 0,0 C -0.249,0 -0.465,-0.054 -1.006,-0.227 L -1.006,-2.973 C -0.476,-3.156 -0.292,-3.199 -0.021,-3.199 C 0.637,-3.199 0.973,-2.681 0.973,-1.61 C 0.973,-0.519 0.649,0 0,0 M 0.508,-4.291 C -0.021,-4.291 -0.584,-3.988 -1.092,-3.697 L -1.092,-4.172 L -2.313,-4.172 L -2.313,3.502 L -1.006,3.502 L -1.006,0.508 C -0.432,0.844 0.054,1.081 0.594,1.081 C 1.698,1.081 2.346,0.087 2.346,-1.567 C 2.346,-3.221 1.621,-4.291 0.508,-4.291"
               id="path2550"
               style="fill:#626b71;fill-opacity:1;fill-rule:nonzero;stroke:none" />
          </g>
          <path
             d="M 193.639,758.574 L 194.946,758.574 L 194.946,750.9 L 193.639,750.9 L 193.639,758.574 z"
             id="path2552"
             style="fill:#626b71;fill-opacity:1;fill-rule:nonzero;stroke:none" />
          <path
             d="M 196.265,756.035 L 197.573,756.035 L 197.573,750.9 L 196.265,750.9 L 196.265,756.035 z M 196.924,756.92 C 196.514,756.92 196.178,757.255 196.178,757.667 C 196.178,758.078 196.514,758.412 196.924,758.412 C 197.336,758.412 197.66,758.078 197.66,757.667 C 197.66,757.255 197.336,756.92 196.924,756.92"
             id="path2554"
             style="fill:#626b71;fill-opacity:1;fill-rule:nonzero;stroke:none" />
          <g
             transform="translate(202.039,750.8999)"
             id="g2556">
            <path
               d="M 0,0 L 0,3.113 C 0,3.771 -0.055,4.161 -0.714,4.161 C -1.038,4.161 -1.428,4.097 -1.839,3.956 L -1.839,0 L -3.147,0 L -3.147,5.135 L -1.925,5.135 L -1.925,4.68 C -1.169,5.08 -0.596,5.253 -0.076,5.253 C 0.444,5.253 0.854,5.048 1.071,4.701 C 1.264,4.398 1.309,4.129 1.309,3.307 L 1.309,0 L 0,0 z"
               id="path2558"
               style="fill:#626b71;fill-opacity:1;fill-rule:nonzero;stroke:none" />
          </g>
          <g
             transform="translate(207.639,754.8452)"
             id="g2560">
            <path
               d="M 0,0 C -0.52,0.184 -0.692,0.216 -0.963,0.216 C -1.621,0.216 -1.957,-0.313 -1.957,-1.352 C -1.957,-2.422 -1.643,-2.897 -0.994,-2.897 C -0.746,-2.897 -0.529,-2.854 0,-2.67 L 0,0 z M 0.81,-5.578 C 0.443,-6 -0.162,-6.226 -1.016,-6.226 C -1.535,-6.226 -2.153,-6.15 -2.92,-5.988 L -2.822,-5.21 C -2.303,-5.275 -1.967,-5.287 -1.6,-5.287 C -0.887,-5.287 -0.444,-5.156 -0.227,-4.843 C -0.055,-4.594 0,-4.281 0,-3.578 L 0,-3.405 C -0.508,-3.697 -1.039,-3.957 -1.578,-3.957 C -2.639,-3.957 -3.33,-3.006 -3.33,-1.384 C -3.33,0.238 -2.606,1.308 -1.492,1.308 C -0.973,1.308 -0.41,1.006 0.097,0.713 L 0.097,1.19 L 1.308,1.19 L 1.308,-3.287 C 1.308,-4.778 1.221,-5.113 0.81,-5.578"
               id="path2562"
               style="fill:#626b71;fill-opacity:1;fill-rule:nonzero;stroke:none" />
          </g>
          <g
             transform="translate(214.082,750.7808)"
             id="g2564">
            <path
               d="M 0,0 C -0.572,0 -1.006,0.216 -1.211,0.605 C -1.34,0.865 -1.383,1.178 -1.383,1.967 L -1.383,4.389 L -2.248,4.389 L -2.248,5.102 L -1.383,5.232 L -1.383,6.658 L -0.076,6.658 L -0.076,5.254 L 1.309,5.254 L 1.309,4.389 L -0.076,4.389 L -0.076,2.205 C -0.076,1.361 -0.076,1.33 0.012,1.189 C 0.098,1.037 0.26,0.973 0.52,0.973 C 0.746,0.973 0.963,1.005 1.363,1.103 L 1.526,0.313 C 0.899,0.098 0.422,0 0,0"
               id="path2566"
               style="fill:#626b71;fill-opacity:1;fill-rule:nonzero;stroke:none" />
          </g>
          <g
             transform="translate(218.947,754.9966)"
             id="g2568">
            <path
               d="M 0,0 C -0.455,0 -0.81,-0.054 -1.265,-0.249 L -1.265,-4.097 L -2.572,-4.097 L -2.572,1.038 L -1.351,1.038 L -1.351,0.519 C -0.789,0.94 -0.302,1.124 0.206,1.124 C 0.291,1.124 0.401,1.113 0.401,1.113 L 0.401,-0.022 C 0.227,0 0.129,0 0,0"
               id="path2570"
               style="fill:#626b71;fill-opacity:1;fill-rule:nonzero;stroke:none" />
          </g>
          <g
             transform="translate(222.553,753.3423)"
             id="g2572">
            <path
               d="M 0,0 C -1.211,-0.064 -1.578,-0.259 -1.578,-0.864 C -1.578,-1.384 -1.318,-1.6 -0.942,-1.6 C -0.584,-1.6 0,-1.384 0,-1.384 L 0,0 z M 0.055,-2.442 L 0.055,-1.968 C -0.596,-2.346 -1.07,-2.562 -1.514,-2.562 C -2.281,-2.562 -2.854,-2.011 -2.854,-0.962 C -2.854,-0.454 -2.734,-0.064 -2.477,0.194 C -1.945,0.725 -0.865,0.692 0,0.692 L 0,0.833 C 0,1.546 -0.065,1.806 -0.908,1.806 C -1.287,1.806 -1.731,1.751 -2.389,1.632 L -2.52,2.421 C -1.643,2.671 -0.854,2.811 -0.293,2.811 C 0.367,2.811 0.777,2.638 1.006,2.281 C 1.211,1.956 1.264,1.61 1.264,0.638 L 1.264,-2.442 L 0.055,-2.442 z"
               id="path2574"
               style="fill:#626b71;fill-opacity:1;fill-rule:nonzero;stroke:none" />
          </g>
          <g
             transform="translate(228.131,754.8452)"
             id="g2576">
            <path
               d="M 0,0 C -0.529,0.184 -0.715,0.216 -0.984,0.216 C -1.645,0.216 -1.978,-0.303 -1.978,-1.373 C -1.978,-2.465 -1.666,-2.973 -1.018,-2.973 C -0.768,-2.973 -0.52,-2.93 0,-2.746 L 0,0 z M 0.086,-3.945 L 0.086,-3.471 C -0.477,-3.805 -1.049,-4.064 -1.6,-4.064 C -2.703,-4.064 -3.352,-3.06 -3.352,-1.405 C -3.352,0.248 -2.639,1.308 -1.482,1.308 C -0.93,1.308 -0.434,0.994 0,0.734 L 0,3.729 L 1.307,3.729 L 1.307,-3.945 L 0.086,-3.945 z"
               id="path2578"
               style="fill:#626b71;fill-opacity:1;fill-rule:nonzero;stroke:none" />
          </g>
          <g
             transform="translate(232.781,755.2983)"
             id="g2580">
            <path
               d="M 0,0 C -0.615,0 -0.951,-0.465 -1.037,-1.34 L 0.897,-1.242 C 0.866,-0.399 0.594,0 0,0 M -1.058,-2.031 L -1.058,-2.184 C -1.058,-3.112 -0.67,-3.502 0.077,-3.502 C 0.52,-3.502 0.963,-3.438 1.774,-3.178 L 2,-3.924 C 0.94,-4.377 0.346,-4.518 -0.269,-4.518 C -1.556,-4.518 -2.421,-3.588 -2.421,-1.967 C -2.421,-0.302 -1.578,0.854 -0.097,0.854 C 1.352,0.854 2.086,0.012 2.086,-1.815 L 2.086,-2.031 L -1.058,-2.031 z"
               id="path2582"
               style="fill:#626b71;fill-opacity:1;fill-rule:nonzero;stroke:none" />
          </g>
        </g>
      </g>
    </g>
  </g>
</svg>
