<svg width="331" height="400" viewBox="0 0 331 400" fill="none" xmlns="http://www.w3.org/2000/svg">
<g clip-path="url(#clip0_255_434)">
<path d="M159.159 178.335V186.185C161.285 186.348 166.119 186.757 171.374 187.213C176.231 187.645 181.217 188.299 185.97 189.409C188.422 189.981 191.038 191.114 192.124 193.392C193.327 195.88 193.116 198.777 193.105 201.522C193.105 203.029 193.046 257.918 192.953 295.379V314.969C192.953 322.737 192.965 327.713 192.965 328.157C192.976 330.902 193.186 333.787 191.995 336.287C191.015 338.307 188.854 339.429 186.659 340.048L186.729 340.001C178.438 342.501 170.428 338.798 161.413 332.829C161.285 332.747 155.598 329.29 139.962 316.639C153.029 301.267 162.429 279.937 162.429 262.275C162.429 259.519 158.984 258.152 154.629 257.685C141.795 256.306 132.617 256.073 127.117 256.073C127 256.073 123.381 256.073 123.381 256.073V261.247H126.545C130.305 261.306 134.696 261.084 137.428 263.642C140.861 266.399 141.784 270.756 141.784 274.19C141.784 288.184 135.361 303.089 130.772 309.514C126.417 305.612 98.2164 280.159 90.4277 271.211C72.0829 250.793 52.3719 232.453 52.3719 210.89C52.3719 191.394 67.272 184.748 76.9056 184.748C89.7388 184.748 97.761 189.561 102.35 195.074C107.395 201.031 108.422 205.774 107.943 214.208L107.663 218.974H112.941C112.941 218.974 115.884 192.574 115.884 185.449C115.884 182.704 115.884 180.858 111.984 179.491C109.683 178.545 106.811 177.646 103.541 176.875C106.857 176.98 110.045 176.945 113.116 176.781C129.511 176.197 146.396 171.221 157.98 161.199C164.834 155.452 169.505 148.618 172.074 141.516C173.417 143.455 174.842 145.371 176.36 147.24C190.898 165.217 211.158 175.567 237.116 178.323H159.159V178.335ZM74.3833 340.025C50.5386 340.025 30.3605 321.674 30.3605 293.008C30.3605 274.657 38.3944 263.887 46.1831 258.152C50.0715 263.876 64.7497 280.393 70.705 286.817C76.6604 293.23 98.6834 314.805 111.972 326.264C107.161 330.855 92.0275 340.025 74.3833 340.025ZM58.0937 153.069C58.0937 152.648 58.0937 152.216 58.0937 151.761V150.429C58.0704 136.972 57.8252 25.1843 57.8252 23.9928C57.8368 20.7572 58.1288 18.3859 60.1606 15.9212C63.4535 12.1832 69.0936 11.8562 75.9247 11.8562C76.275 11.8562 98.0996 11.8562 98.0996 11.8562C118.184 12.0898 133.762 19.6825 134.369 46.841V47.8105C134.264 70.8223 119.527 82.0828 100.61 82.223H87.7537V90.283H100.61C124.758 90.8904 145.415 96.4039 145.59 130.209C145.415 158.173 130.702 168.932 109.975 169.13H82.2771C77.9799 169.177 73.5192 169.002 69.7709 168.348C59.2381 166.292 58.1988 158.921 58.1171 153.081M264.721 92.1286V98.3546C271.622 98.3546 276.444 99.0555 279.177 100.446C281.909 101.836 283.929 103.856 285.237 106.508C286.545 109.16 287.199 114.778 287.199 123.364V146.457L287.164 149.144C287.246 157.659 287.596 161.082 279.889 164.645C276.713 166.023 273.467 167.18 270.15 168.067C264.265 169.668 258.158 170.462 251.852 170.462C241.074 170.462 230.577 167.331 220.347 161.059C210.118 154.786 201.851 144.915 195.545 131.447C189.228 117.979 186.075 103.074 186.075 86.7436C186.075 66.6171 190.828 49.2707 200.345 34.7161C211.706 17.4514 228.288 8.81908 250.089 8.81908C266.075 8.81908 279.165 13.7485 289.348 23.5957C296.412 30.4174 301.363 40.5566 305.824 54.0249H311.055L306.642 -0.0234985H301.971C301.725 4.27514 301.025 7.16037 299.892 8.63219C298.759 10.104 297.382 10.8399 295.793 10.8399C294.205 10.8399 291.041 9.96383 286.323 8.18831C276.982 4.74238 269.765 2.5113 264.674 1.49504C259.583 0.478788 253.931 -0.0234985 247.695 -0.0234985C230.612 -0.0234985 215.793 3.63268 203.264 10.9567C188.282 19.7993 176.5 32.4266 167.917 48.8502C160.677 62.6572 157.057 77.095 157.057 92.1636C157.057 93.8924 157.104 95.5979 157.198 97.2916C156.158 96.544 155.096 95.8198 153.986 95.1306C146.128 90.0143 136.541 86.7903 126.627 85.4587C124.794 85.19 122.937 84.9681 121.057 84.8162L125.401 83.4729C143.956 77.9828 158.832 64.5495 158.832 44.7968C158.832 44.5048 158.832 44.2128 158.821 43.8974C158.038 18.0238 131.811 3.621 106.916 3.64436H0V11.3889H13.8724C20.9021 11.3422 27.1727 11.751 30.4306 14.7414C33.9921 18.0004 34.2957 21.7968 34.3074 26.9832C34.3191 27.7424 34.0972 156.515 34.0972 159.155C34.0972 164.026 30.5007 165.895 26.5538 167.133C21.4976 168.71 16.0444 168.663 10.8013 168.663H0V176.84C0 176.84 34.249 176.875 64.7614 176.875C39.0367 183.229 28.3404 202.036 28.5272 216.859C28.7608 227.174 30.5824 236.577 40.216 249.414C26.4604 256.073 2.84922 276.947 2.84922 303.778C2.84922 323.729 17.5157 354.462 66.583 354.462C97.9945 354.462 113.362 340.48 120.928 333.588C136.856 345.818 145.264 349.918 161.67 351.052C163.538 351.192 165.5 351.297 167.59 351.367C172.121 351.495 318.564 351.425 318.564 351.425L318.412 294.714H310.904C311.231 294.714 311.02 301.068 310.974 301.652C310.799 304.245 310.413 306.815 309.806 309.338C307.961 317.141 304.014 324.722 299.016 330.96C292.617 338.927 282.668 341.812 272.836 342.478C263.284 343.12 240.666 342.665 238.961 342.665C229.829 342.665 224.376 341.905 221.048 339.265C217.183 336.333 216.401 332.467 216.366 327.07V265.266C217.008 265.266 227.739 265.324 228.813 265.371C236.31 265.721 244.367 266.924 250.369 271.83C254.176 274.926 258.648 278.325 258.648 292.389V295.403H266.063V227.606H258.648V230.608C258.648 244.684 254.176 248.083 250.369 251.178C244.356 256.073 236.31 257.276 228.813 257.638C227.739 257.685 217.02 257.743 216.366 257.743V204.746C216.366 199.326 216.552 193.205 221.562 189.911C225.077 187.586 229.467 187.575 233.519 187.294C242.137 186.71 250.766 186.909 259.384 186.944C267.383 186.967 275.043 187.75 282.563 190.694C294.381 195.308 301.889 206.148 305.018 218.109C306.361 223.237 306.875 228.54 307.26 233.808C307.26 233.82 314.045 233.808 314.045 233.808L312.176 178.3H266.671C272.474 177.704 277.962 176.735 283.124 175.391C292.559 172.95 302.099 169.119 311.779 163.897V123.34C311.779 114.171 312.62 108.027 314.302 104.908C316.742 100.539 321.25 98.3429 327.812 98.3429H330.965V92.1169H264.686L264.721 92.1286Z" fill="black"/>
<path d="M204.303 364.332V363.549C204.303 363.433 204.197 363.327 204.081 363.327H193.653C193.373 363.327 193.256 363.386 193.093 363.573C191.785 364.974 190.827 366.855 190.827 369.308C190.827 371.551 191.458 373.525 193.151 375.441C197.063 379.856 205.622 382.274 208.927 385.019C210.164 386.047 210.924 387.192 210.924 388.535C210.924 391.537 208.833 393.757 202.493 393.757C198.779 393.757 195.661 393.067 191.621 392.215C191.458 392.18 191.411 392.285 191.411 392.378V398.663C191.411 398.861 191.458 398.896 191.621 398.955C195.206 400.181 199.597 400.999 203.625 400.999C213.469 400.999 220.09 395.836 220.09 388.138C220.09 384.657 218.689 381.947 216.167 379.669C212.523 376.364 206.381 374.214 202.878 372.077C201.675 371.341 200.181 370.196 200.181 368.175C200.181 366.563 201.196 364.928 204.314 364.344" fill="#D22328"/>
<path d="M249.32 400.356C248.607 400.52 246.167 400.999 242.944 400.999C233.369 400.999 228.616 396.677 228.616 387.098V370.535H217.85C217.71 370.535 217.616 370.476 217.593 370.324L216.402 363.549C216.379 363.421 216.449 363.339 216.589 363.339H249.32C249.448 363.339 249.542 363.444 249.542 363.561V370.324C249.542 370.441 249.436 370.546 249.32 370.546H237.561V387.274C237.561 392.028 239.943 393.967 245.256 393.967C247.428 393.967 248.829 393.803 249.331 393.733C249.472 393.71 249.553 393.768 249.553 393.92V400.076C249.553 400.228 249.518 400.31 249.343 400.345" fill="#D22328"/>
<path d="M280.203 363.33C279.421 363.201 276.583 362.758 273.022 362.758C264.147 362.758 256.884 366.425 256.884 376.903V400.195C256.884 400.312 256.977 400.417 257.106 400.417H265.595C265.723 400.417 265.817 400.312 265.817 400.195V377.207C265.817 372.616 268.327 369.86 275.077 369.86C277.109 369.86 279.339 370.07 280.191 370.163C280.32 370.175 280.413 370.14 280.413 369.988V363.599C280.413 363.447 280.367 363.365 280.203 363.342" fill="#D22328"/>
<path d="M314.476 377.406C312.771 367.722 308.158 362.758 299.296 362.758C290.433 362.758 285.82 367.71 284.115 377.406C284.115 377.406 280.122 400.032 280.098 400.207C280.075 400.382 280.168 400.417 280.285 400.417H288.774C288.938 400.417 289.008 400.359 289.031 400.207C289.055 400.044 290.573 391.481 290.573 391.481H303.359C303.499 391.481 303.593 391.423 303.616 391.271L304.807 384.496C304.83 384.368 304.76 384.286 304.62 384.286H291.834L293.048 377.406C293.854 372.85 295.033 369.941 299.296 369.941C303.558 369.941 304.749 372.862 305.543 377.406C305.543 377.406 309.536 400.055 309.56 400.207C309.583 400.359 309.653 400.417 309.817 400.417H318.306C318.423 400.417 318.516 400.382 318.493 400.207C318.469 400.032 314.476 377.406 314.476 377.406Z" fill="#D22328"/>
<path d="M172.602 400.415C172.73 400.415 172.824 400.31 172.824 400.193V389.832C179.76 388.477 183.053 383.711 184.466 375.616L186.568 363.549C186.591 363.421 186.533 363.339 186.381 363.339H178.078C177.903 363.339 177.845 363.398 177.821 363.549L175.696 375.616C174.89 380.172 172.765 383.22 168.503 383.22C164.241 383.22 162.104 380.172 161.31 375.616L159.185 363.549C159.161 363.398 159.091 363.339 158.928 363.339H150.625C150.474 363.339 150.415 363.421 150.439 363.549L152.54 375.616C153.953 383.711 157.246 388.489 164.183 389.832V400.193C164.183 400.31 164.276 400.415 164.404 400.415H172.625H172.602Z" fill="#D22328"/>
<path d="M134.928 381.155C129.055 378.375 126.626 376.88 126.626 374.38C126.626 371.483 128.564 369.93 134.053 369.93C136.972 369.93 140.919 370.385 144.177 371.133C144.305 371.168 144.387 371.133 144.387 370.981V364.697C144.387 364.556 144.352 364.463 144.177 364.416C140.487 363.388 137.322 362.758 133.002 362.758C123.006 362.758 117.331 367.64 117.331 374.474C117.331 377.452 118.347 379.87 120.379 381.985C124.361 386.131 133.002 388.818 135.839 391.505C137.112 392.72 137.486 393.806 137.486 394.974C137.486 397.836 135.349 399.039 132.862 399.506C132.698 399.541 132.511 399.576 132.301 399.6V400.195C132.301 400.312 132.395 400.417 132.523 400.417H144.037C144.317 400.417 144.434 400.359 144.597 400.172C145.94 398.689 146.769 396.095 146.769 394.156C146.769 389.484 144.445 385.652 134.94 381.155" fill="#D22328"/>
<path d="M64.363 400.17C65.0637 399.913 65.6709 399.551 66.173 399.084L65.2505 397.589C65.1804 397.483 65.1221 397.402 65.0637 397.355C65.0053 397.308 64.9235 397.285 64.8184 397.285C64.7367 397.285 64.6433 397.32 64.5382 397.402C64.4331 397.472 64.3047 397.554 64.1529 397.647C64.001 397.74 63.8259 397.822 63.6157 397.892C63.4055 397.962 63.1603 398.009 62.88 398.009C62.3896 398.009 61.9926 397.857 61.6773 397.542C61.362 397.226 61.2102 396.759 61.2102 396.117V386.667H65.7877V384.412H61.2102V378.992H59.6338C59.447 378.992 59.2835 379.039 59.1667 379.144C59.0499 379.249 58.9682 379.389 58.9215 379.565L58.2209 384.377L55.6052 384.739V385.989C55.6052 386.211 55.6636 386.375 55.792 386.492C55.9088 386.597 56.0606 386.655 56.2474 386.655H58.1158V396.315C58.1158 397.67 58.4661 398.71 59.1667 399.446C59.8673 400.17 60.8716 400.544 62.1794 400.544C62.9268 400.544 63.6507 400.415 64.3514 400.158M47.5947 384.985C47.548 384.681 47.4546 384.459 47.3378 384.342C47.221 384.225 46.9875 384.155 46.6488 384.155H44.8739V400.299H47.9683V390.194C48.1669 389.681 48.3887 389.213 48.6223 388.804C48.8558 388.396 49.1244 388.057 49.428 387.765C49.7316 387.484 50.0702 387.274 50.4556 387.134C50.8409 386.994 51.273 386.924 51.7751 386.924C52.1137 386.924 52.429 386.947 52.7326 387.006C53.0245 387.064 53.2464 387.087 53.3982 387.087C53.6785 387.087 53.8419 386.947 53.9237 386.655L54.1339 384.319C53.9003 384.155 53.6318 384.039 53.3165 383.957C53.0012 383.875 52.6742 383.84 52.3239 383.84C51.2963 383.84 50.4205 384.144 49.6849 384.739C48.9492 385.347 48.3303 386.176 47.8165 387.239L47.6297 384.961L47.5947 384.985ZM30.0906 387.414C30.1841 387.578 30.3125 387.706 30.4643 387.823C30.6161 387.94 30.803 387.998 31.0131 387.998C31.2817 387.998 31.5386 387.917 31.7838 387.741C32.0291 387.566 32.321 387.379 32.6596 387.181C32.9983 386.971 33.3953 386.784 33.8507 386.62C34.3061 386.457 34.8783 386.363 35.5555 386.363C36.5598 386.363 37.3188 386.667 37.8443 387.274C38.3581 387.882 38.6266 388.793 38.6266 390.008V391.187C36.7933 391.234 35.2519 391.398 34.0025 391.701C32.7414 391.993 31.7254 392.379 30.9548 392.846C30.1724 393.313 29.6119 393.839 29.2732 394.423C28.9346 395.007 28.7595 395.626 28.7595 396.257C28.7595 396.981 28.8762 397.612 29.1214 398.149C29.355 398.687 29.6819 399.142 30.1023 399.504C30.511 399.866 31.0015 400.135 31.5503 400.31C32.1108 400.486 32.7063 400.567 33.3369 400.567C33.9675 400.567 34.4929 400.509 34.9834 400.404C35.4855 400.299 35.9526 400.147 36.3846 399.937C36.8284 399.726 37.2487 399.481 37.6458 399.189C38.0545 398.897 38.4515 398.558 38.8719 398.184L39.1988 399.598C39.2922 399.878 39.4207 400.065 39.5842 400.158C39.7476 400.264 39.9695 400.31 40.2848 400.31H41.6627V390.019C41.6627 389.108 41.5342 388.279 41.289 387.52C41.0438 386.772 40.6701 386.118 40.1797 385.58C39.6893 385.043 39.0937 384.623 38.3814 384.319C37.6691 384.015 36.8634 383.863 35.9409 383.863C34.6798 383.863 33.5237 384.074 32.4728 384.494C31.4218 384.915 30.441 385.557 29.5418 386.421L30.1023 387.426L30.0906 387.414ZM38.615 396.315C38.3114 396.642 37.9961 396.934 37.6808 397.191C37.3655 397.448 37.0269 397.659 36.6766 397.834C36.3262 398.009 35.9526 398.138 35.5555 398.243C35.1585 398.336 34.7265 398.383 34.2477 398.383C33.8857 398.383 33.5588 398.336 33.2435 398.254C32.9399 398.173 32.6713 398.032 32.4378 397.846C32.2042 397.659 32.0291 397.425 31.9006 397.133C31.7722 396.841 31.7021 396.491 31.7021 396.093C31.7021 395.673 31.8189 395.287 32.0641 394.937C32.3093 394.598 32.7063 394.295 33.2552 394.038C33.804 393.781 34.5163 393.582 35.4037 393.43C36.2795 393.278 37.3538 393.173 38.615 393.138V396.315ZM12.5049 377.485V400.31H15.8913V391.9H19.4177C20.819 391.9 22.0568 391.725 23.1311 391.374C24.2054 391.024 25.1045 390.522 25.8285 389.867C26.5525 389.225 27.0896 388.454 27.4633 387.555C27.837 386.655 28.0238 385.674 28.0238 384.611C28.0238 383.548 27.8486 382.567 27.51 381.691C27.1597 380.815 26.6342 380.067 25.9336 379.448C25.2213 378.829 24.3338 378.35 23.2478 378.011C22.1736 377.672 20.9007 377.497 19.4411 377.497H12.5282L12.5049 377.485ZM15.8913 389.225V380.137H19.4177C21.1693 380.137 22.4888 380.534 23.3529 381.329C24.217 382.123 24.6491 383.209 24.6491 384.599C24.6491 385.288 24.5323 385.919 24.3221 386.48C24.1003 387.052 23.7733 387.531 23.3296 387.94C22.8859 388.349 22.3487 388.664 21.6948 388.886C21.0409 389.108 20.2935 389.225 19.4294 389.225H15.9029H15.8913Z" fill="black"/>
<path d="M100.398 400.299V386.667H104.823V384.413H100.293V383.046C100.293 382.38 100.363 381.82 100.514 381.376C100.666 380.92 100.876 380.558 101.145 380.289C101.414 380.021 101.752 379.822 102.149 379.705C102.546 379.589 102.978 379.53 103.457 379.53C103.656 379.53 103.842 379.53 104.018 379.53C104.193 379.53 104.345 379.507 104.461 379.472C104.578 379.437 104.683 379.39 104.753 379.32C104.823 379.25 104.87 379.145 104.882 379.004L104.94 377.451C104.321 377.241 103.656 377.135 102.92 377.135C102.056 377.135 101.273 377.264 100.573 377.521C99.8722 377.778 99.2884 378.163 98.7979 378.666C98.3075 379.168 97.9221 379.775 97.6652 380.5C97.3967 381.224 97.2682 382.042 97.2682 382.964V384.425H94.7576V385.709C94.7576 385.943 94.8394 386.118 94.9912 386.235C95.143 386.364 95.3415 386.445 95.5867 386.504L97.2682 386.714V400.311H100.386L100.398 400.299ZM82.882 396.561C82.123 395.533 81.7493 394.085 81.7493 392.227C81.7493 390.37 82.123 388.91 82.882 387.882C83.641 386.854 84.7854 386.329 86.3384 386.329C87.8915 386.329 89.0008 386.842 89.7481 387.882C90.4955 388.91 90.8808 390.359 90.8808 392.227C90.8808 394.096 90.5071 395.533 89.7481 396.561C89.0008 397.589 87.8564 398.103 86.3384 398.103C84.8204 398.103 83.641 397.589 82.882 396.561ZM83.1038 384.483C82.1463 384.868 81.3289 385.429 80.6516 386.153C79.9744 386.878 79.4489 387.754 79.0869 388.77C78.7249 389.798 78.5381 390.943 78.5381 392.204C78.5381 393.466 78.7249 394.622 79.0869 395.65C79.4489 396.678 79.9744 397.554 80.6516 398.267C81.3289 398.991 82.1463 399.54 83.1038 399.925C84.0614 400.311 85.1357 400.509 86.3384 400.509C87.5412 400.509 88.5921 400.311 89.5496 399.925C90.5071 399.54 91.3245 398.979 92.0018 398.267C92.6791 397.542 93.1929 396.678 93.5549 395.65C93.9169 394.622 94.092 393.477 94.092 392.204C94.092 390.931 93.9169 389.786 93.5549 388.77C93.1929 387.742 92.6791 386.878 92.0018 386.153C91.3245 385.429 90.5188 384.868 89.5496 384.483C88.5921 384.097 87.5178 383.899 86.3384 383.899C85.159 383.899 84.0614 384.097 83.1038 384.483Z" fill="black"/>
</g>
<defs>
<clipPath id="clip0_255_434">
<rect width="331" height="401" fill="white"/>
</clipPath>
</defs>
</svg>
