<svg width="557" height="140" viewBox="0 0 557 140" fill="none" xmlns="http://www.w3.org/2000/svg">
<path d="M91.03 125.66C81.9 125.66 74.56 117.81 74.56 107.4C74.56 96.99 81.9 89.91 91.03 89.91C100.16 89.91 107.5 97.42 107.5 107.4C107.5 117.38 100.16 125.66 91.03 125.66ZM91.03 76.25C72.6 76.25 59.11 89.9 59.11 107.4C59.11 124.9 72.59 139.32 91.03 139.32C109.47 139.32 122.95 125.32 122.95 107.4C122.95 89.48 109.47 76.25 91.03 76.25Z" fill="#1C2F75"/>
<path d="M179.79 115.85C179.79 129.59 189.86 139.32 205.39 139.32C220.92 139.32 230.82 129.59 230.82 115.85V77.28C230.82 77.28 225.21 77.36 220.64 81.36C216.07 85.36 215.88 89.91 215.88 89.91V115.85C215.88 122.25 211.7 125.66 205.3 125.66C198.9 125.66 194.72 122.25 194.72 115.85V77.28C194.72 77.28 190.27 77.23 185.19 81.36C179.79 85.82 179.79 89.91 179.79 89.91V115.85Z" fill="#1C2F75"/>
<path d="M133.1 138.29H170.82C170.82 138.29 171.71 138.29 172.33 137.67C172.94 137.06 172.95 136.16 172.95 136.16V125.49H148.03V77.27C148.03 77.27 142.61 77.22 137.85 81.35C133.09 85.48 133.09 90.08 133.09 90.08V138.3L133.1 138.29Z" fill="#1C2F75"/>
<path d="M361.75 138.29H374.55C374.55 138.29 375.43 138.29 376.06 137.67C376.68 137.06 376.69 136.16 376.69 136.16V77.27C376.69 77.27 371.33 77.22 366.54 81.35C361.75 85.48 361.75 90.08 361.75 90.08V138.3V138.29Z" fill="#1C2F75"/>
<path d="M269.2 125.49H260.24V112.86H269.29C273.64 112.86 275.69 115.68 275.69 119.09C275.69 122.5 273.56 125.49 269.2 125.49ZM260.24 90.07H267.66C271.67 90.07 273.29 92.46 273.29 95.28C273.29 98.1 271.67 100.91 267.91 100.91H260.23V90.07H260.24ZM281.4 106.37V106.2C286.01 103.55 288.48 98.35 288.48 93.23C288.48 82.73 279.95 77.27 267.74 77.27H247.39C246.24 77.3 245.31 78.24 245.31 79.4V138.29H267.75C279.87 138.29 290.96 133.43 290.96 120.11C290.96 114.73 288.4 108.5 281.4 106.37Z" fill="#1C2F75"/>
<path d="M324.07 104.92H317.58V90.07H322.61C330.12 90.07 331.83 92.8 331.83 97.41C331.83 102.27 328.84 104.92 324.06 104.92M340.2 116.96C338.75 114.4 337.9 113.29 337.9 113.29V113.12C343.96 110.05 347.03 102.96 347.03 96.48C347.03 87.6 342.68 81.38 335.77 78.73C333.12 77.71 330.14 77.28 323.91 77.28H304.74C303.59 77.31 302.66 78.24 302.66 79.4V138.3H315.46C315.46 138.3 316.37 138.3 316.98 137.68C317.59 137.07 317.6 136.17 317.6 136.17V117.73H324.6L335.44 138.3H352.08L340.22 116.97L340.2 116.96Z" fill="#1C2F75"/>
<path d="M402.8 94.77C402.8 91.36 406.21 89.99 409.29 89.99C414.29 89.99 418.74 92.49 421.06 94.08C422.1 94.6 423.37 94.2 423.91 93.17L429.09 83.17C429.09 83.17 422.6 76.26 409.46 76.26C397.34 76.26 387.87 83.68 387.87 94.95C387.87 113.72 415.35 113.47 415.35 120.72C415.35 124.39 412.02 125.58 408.95 125.58C403.57 125.58 398.57 122.48 396.06 120.63C395.1 119.94 393.77 120.16 393.08 121.12L386.51 130.62C386.51 130.62 394.45 139.32 408.78 139.32C423.11 139.32 430.29 130.53 430.29 120.37C430.29 101.08 402.81 102.45 402.81 94.77" fill="#1C2F75"/>
<path d="M47.62 119.36C45.2 121.48 39.56 125.66 32.69 125.66C21.43 125.66 15.45 116.36 15.45 107.31C15.45 98.26 21 89.9 32.69 89.9C37.88 89.9 42.44 92.25 45.2 94.06C46.15 94.75 47.49 94.54 48.18 93.59C48.18 93.59 50.87 86.42 52.91 83.11C49.74 80.59 42.73 76.25 32.01 76.25C13.65 76.25 0 89.9 0 107.65C0 125.4 12.89 139.31 32 139.31C41.99 139.31 49.11 135.29 53.03 132.29C50.59 128.3 48.77 123.95 47.61 119.36" fill="#1C2F75"/>
<path d="M497.18 46.83C495.65 50.94 493.73 54.97 491.42 58.87C487.48 65.51 482.67 71.32 477.2 76.25C480.9 78.23 484.28 80.97 487.07 84.44C489.75 87.77 491.64 91.48 492.8 95.34C500.28 91.05 508.62 84.31 512.99 77.72C518.11 69.98 518.83 59.81 519.63 55.34C519.95 53.55 520.31 51.76 520.69 49.97L520.63 50C512.58 53.47 503.6 51.95 497.19 46.82" fill="#38A836"/>
<path d="M422.01 18.21C416.59 18.21 412.13 19.03 408.39 20.4C409.41 22.26 410.78 28.6 428.61 43.45C451.18 62.56 470.35 72.39 474.72 74.81C479.85 70.12 485.54 63.44 489.26 57.18C491.47 53.45 493.31 49.59 494.79 45.66C492.45 44.28 479.43 34.59 461.87 27.66C444.59 20.84 431.76 18.2 422.03 18.2" fill="#A6358A"/>
<path d="M555.55 6.77C555.55 6.77 529.78 16.35 526.1 17.47C524.89 17.84 523.58 17.9 522.07 17.75C518.21 17.35 514.31 16.77 510.46 18.2C506.22 19.77 503.02 21.83 501.68 26.29C500.34 30.75 500.03 36.73 499.45 39.66C498.94 42.22 498.78 42.65 498.07 44.63C503.81 49.65 512.16 51.21 519.62 47.99C520.22 47.73 520.8 47.44 521.37 47.13C521.91 44.75 522.47 42.09 523.02 39.72C524.15 34.86 525.86 30.17 527.92 25.66C528.62 24.13 529.53 22.79 530.58 21.61C531.07 21.07 531.58 20.55 532.13 20.07C534.3 18.15 536.88 16.69 539.55 15.45C545.08 12.9 556.33 8.94 556.33 8.94L555.54 6.78L555.55 6.77Z" fill="#F08700"/>
<path d="M475.06 77.99C473.54 79.51 465.85 86.71 460.74 98.44C455.63 110.16 451.89 130 451.89 138.3H456.8C459.49 125.62 463.7 117.75 471.07 109.94C477.1 103.55 481.41 100.31 490.25 96.59C489 92.75 487.06 89.06 484.38 85.73C481.51 82.15 478.83 80.1 475.04 78" fill="#005CA8"/>
<path d="M495.75 43.32C490.03 34.45 477.92 20.89 471.19 15.68C463.51 9.73 451 2.54 433.35 0C432.45 4.12 434.45 12.43 442.29 18.34C449.33 20.3 457.61 23.01 467.58 27.36C479.21 32.44 489.55 39.1 495.75 43.32Z" fill="#82296C"/>
</svg>
