<svg width="160" height="42" viewBox="0 0 160 42" fill="none" xmlns="http://www.w3.org/2000/svg">
	<path d="M64.2925 17.309C64.2925 13.8998 61.6563 12.929 58.744 12.5972L57.7732 12.4861C56.1078 12.2933 55.1093 11.8226 55.1093 10.6851C55.1093 9.881 55.83 9.07528 57.8565 9.07528C59.6592 9.07528 60.4911 9.87936 60.5483 10.9335H64.0163C63.8496 8.82849 61.8786 6.64014 57.9105 6.64014C53.9423 6.64014 51.6674 8.35781 51.6674 10.9907C51.6674 14.0943 54.1646 15.4246 57.2175 15.7858L58.1867 15.8969C59.7687 16.0914 60.8506 16.2843 60.8506 17.6146C60.8506 18.6965 59.9093 19.4156 57.9105 19.4156C56.0228 19.4156 54.9426 18.7799 54.8886 17.3106H51.3912C51.5023 20.0269 53.944 21.8851 57.9121 21.8851C61.8802 21.8851 64.2941 20.0824 64.2941 17.3106" fill="#154633"/>
	<path d="M68.0401 17.585C68.0401 20.2179 69.122 21.4649 71.7565 21.4649H75.3651V18.5019H72.59C71.7565 18.5019 71.4787 18.1407 71.4787 17.3088V9.82527H75.3651V7.05509H71.4803V3.72925H68.0401V7.05509H64.572V9.82527H68.0401V17.585Z" fill="#154633"/>
	<path d="M0 15.5194H3.60694V0.274414H0V15.5194Z" fill="#154633"/>
	<path d="M46.284 17.309C45.9506 18.1948 44.9798 19.2506 43.0922 19.2506C40.595 19.2506 39.2891 17.309 39.1796 15.5096H50.2799V14.9539C50.2979 13.7739 50.1378 12.5972 49.806 11.463C48.8908 8.58008 46.6697 6.64014 43.0072 6.64014C38.5668 6.64014 35.5988 9.96598 35.5988 14.2626C35.5988 18.5592 38.4834 21.8851 43.0906 21.8851C46.8364 21.8851 49.1931 19.8062 49.9988 17.3106H46.2824L46.284 17.309ZM43.0089 9.27303C45.3116 9.27303 46.6174 10.9351 46.6975 12.8751H39.1796C39.4019 10.9351 40.7894 9.27303 43.0089 9.27303Z" fill="#154633"/>
	<path d="M9.87782 13.568C9.87782 10.9351 11.4876 9.54923 13.5681 9.54923C15.6486 9.54923 16.5655 10.6589 16.5655 12.7362V21.4667H20.0057V12.46C20.0057 8.71899 17.8713 6.64014 14.4016 6.64014C12.46 6.64014 10.8502 7.47201 9.87782 8.85791V7.05852H6.43594V21.4683H9.87782V13.5697V13.568Z" fill="#154633"/>
	<path d="M29.9129 21.4649L35.4614 7.05347H31.8006L29.8018 12.5971C29.1905 14.2576 28.6627 16.1991 28.2492 17.7223H28.1364C27.7213 16.1991 27.195 14.2576 26.5838 12.5971L24.5834 7.05347H20.9225L26.4727 21.4649H29.9129Z" fill="#154633"/>
	<path d="M14.4278 26.4807C12.4846 26.4807 10.8764 27.3126 9.90397 28.6985V26.8958H6.46536V41.3056H9.90397V33.4102C9.90397 30.7757 11.5138 29.3898 13.5959 29.3898C15.678 29.3898 16.5916 30.4995 16.5916 32.5784V41.3056H20.0335V32.3005C20.0335 28.5579 17.8958 26.4807 14.4278 26.4807Z" fill="#154633"/>
	<path d="M0 35.3584H3.60694V20.1134H0V35.3584Z" fill="#154633"/>
	<path d="M28.0531 23.5699H24.6128V26.8958H21.1448V29.6692H24.6128V37.4274C24.6128 40.0603 25.6948 41.3072 28.3293 41.3072H31.9379V38.6204H29.1628C28.3293 38.6204 28.0514 38.2592 28.0514 37.4274V29.6692H31.9379V26.8958H28.0514V23.5699H28.0531Z" fill="#154633"/>
	<path d="M81.9154 26.4807C78.1124 26.4807 75.9224 28.1706 75.4779 30.7773H79.0292C79.2499 29.7232 80.1112 29.1136 81.9138 29.1136C84.1332 29.1136 84.9095 30.0828 84.9095 31.7465V32.0243L80.2484 32.4378C76.9193 32.7418 74.7833 34.2388 74.7833 37.0106C74.7833 40.1992 77.1972 41.7224 80.1112 41.7224C82.7457 41.7224 84.0776 40.7516 84.9095 39.6452V41.3056H88.3514V31.7465C88.3514 30.3606 87.9902 29.2247 87.2695 28.3929C86.1876 27.1181 84.2721 26.4807 81.9138 26.4807M84.9095 35.0707C84.9095 37.7036 83.0251 39.0895 80.6652 39.0895C79.2221 39.0895 78.2235 38.3949 78.2235 37.0106C78.2235 35.762 79.1126 35.0429 80.3874 34.9334L84.9079 34.5167V35.0707H84.9095Z" fill="#154633"/>
	<path d="M102.274 41.3073H105.716V26.8959H102.274V41.3073Z" fill="#154633"/>
	<path d="M156.558 41.3074H160V21.908H156.558V41.3074Z" fill="#154633"/>
	<path d="M102.274 24.9544H105.716V21.9064H102.274V24.9544Z" fill="#154633"/>
	<path d="M132.749 26.4807C130.808 26.4807 129.198 27.3126 128.226 28.6985V26.8958H124.787V41.3056H128.226V33.4102C128.226 30.7757 129.835 29.3898 131.918 29.3898C134 29.3898 134.913 30.4995 134.913 32.5784V41.3056H138.355V32.3005C138.355 28.5579 136.217 26.4807 132.749 26.4807Z" fill="#154633"/>
	<path d="M115.158 26.4807C110.578 26.4807 107.609 29.8066 107.609 34.1032C107.609 38.3998 110.577 41.7257 115.158 41.7257C119.739 41.7257 122.703 38.3966 122.703 34.1032C122.703 29.8098 119.735 26.4807 115.158 26.4807ZM115.158 38.9506C112.244 38.9506 111.05 36.4566 111.05 34.1032C111.05 31.7498 112.244 29.2509 115.158 29.2509C118.072 29.2509 119.265 31.7481 119.265 34.1032C119.265 36.4582 118.072 38.9506 115.158 38.9506Z" fill="#154633"/>
	<path d="M96.2778 23.5701H92.8375V26.896H89.3695V29.6694H92.8375V37.4275C92.8375 40.0604 93.9195 41.3074 96.554 41.3074H100.163V38.3427H97.3875C96.554 38.3427 96.2762 37.9816 96.2762 37.1497V29.6678H100.163V26.8943H96.2762V23.5685L96.2778 23.5701Z" fill="#154633"/>
	<path d="M40.2076 26.4807C35.7688 26.4807 32.7992 29.8066 32.7992 34.1032C32.7992 38.3998 35.6854 41.7257 40.291 41.7257C44.0368 41.7257 46.3935 39.6484 47.2025 37.1528H43.4828C43.1494 38.0403 42.1786 39.0928 40.291 39.0928C37.7937 39.0928 36.4912 37.1528 36.38 35.3502H47.4787V34.7945C47.4967 33.6129 47.3365 32.4362 47.0047 31.3036C46.0895 28.4223 43.8701 26.4807 40.2076 26.4807ZM36.38 32.7156C36.6007 30.7773 37.9866 29.1136 40.2076 29.1136C42.4286 29.1136 43.8162 30.7773 43.8995 32.7156H36.38Z" fill="#154633"/>
	<path d="M52.9733 28.5596V26.8959H49.5314V41.3057H52.9733V33.1324C52.9733 30.6368 54.2219 29.6677 56.1651 29.6677H57.855V26.618H56.997C54.7743 26.618 53.6662 27.3126 52.9733 28.5596Z" fill="#154633"/>
	<path d="M67.347 26.4807C65.4055 26.4807 63.7956 27.3126 62.8232 28.6985V26.8958H59.3846V41.3056H62.8232V33.4102C62.8232 30.7757 64.433 29.3898 66.5152 29.3898C68.5973 29.3898 69.5109 30.4995 69.5109 32.5784V41.3056H72.9527V32.3005C72.9527 28.5579 70.8151 26.4807 67.347 26.4807Z" fill="#154633"/>
	<path d="M147.318 26.4807C143.514 26.4807 141.324 28.1706 140.88 30.7773H144.433C144.654 29.7232 145.515 29.1136 147.318 29.1136C149.539 29.1136 150.315 30.0828 150.315 31.7465V32.0243L145.652 32.4378C142.323 32.7418 140.187 34.2388 140.187 37.0106C140.187 40.1992 142.601 41.7224 145.515 41.7224C148.149 41.7224 149.481 40.7516 150.315 39.6452V41.3056H153.755V31.7465C153.755 30.3606 153.394 29.2247 152.673 28.3929C151.591 27.1181 149.676 26.4807 147.318 26.4807ZM150.315 35.0707C150.315 37.7036 148.429 39.0895 146.069 39.0895C144.626 39.0895 143.627 38.3949 143.627 37.0106C143.627 35.762 144.516 35.0429 145.791 34.9334L150.315 34.5167V35.0707Z" fill="#154633"/>
</svg>